<svg width="45" height="45" viewBox="0 0 45 45" fill="none" xmlns="http://www.w3.org/2000/svg">
<path d="M22.2027 1.40723C10.441 1.40723 0.90625 10.942 0.90625 22.7037C0.90625 34.4654 10.441 44.0001 22.2027 44.0001C33.9644 44.0001 43.4992 34.4654 43.4992 22.7037C43.4992 10.942 33.9644 1.40723 22.2027 1.40723ZM22.2027 1.40723L22.2026 24.6325M22.2027 5.34552H34.5372M22.2027 9.20671H38.6769M22.2027 13.0629H41.1971M22.2027 16.9194H42.7042M22.2027 20.7763H43.4131M0.992451 24.6329H43.413M1.70136 28.4886H42.704M3.20883 32.3456H41.1966M5.72974 36.2021H38.6757M9.85647 40.0582H34.5489M19.6318 4.70658V5.99208M17.0605 4.70658V5.99208M14.4896 4.70658V5.99208M19.6318 12.4204V13.7059M17.0605 12.4204V13.7059M14.4896 12.4204V13.7059M11.9191 12.4204V13.7059M9.347 12.4204V13.7059M6.7765 12.4204V13.7059M19.6318 20.1327V21.4182M17.0605 20.1327V21.4182M14.4896 20.1327V21.4182M11.9191 20.1327V21.4182M9.347 20.1327V21.4182M6.7765 20.1327V21.4182M4.20521 20.1327V21.4182M18.3465 8.5635V9.849M15.7748 8.5635V9.849M13.2043 8.5635V9.849M10.633 8.5635V9.849M18.3465 16.2762V17.5617M15.7748 16.2762V17.5617M13.2043 16.2762V17.5617M10.633 16.2762V17.5617M8.06253 16.2762V17.5617M5.49124 16.2762V17.5617" stroke="url(#paint0_linear_664_2366)" stroke-width="1.3" stroke-miterlimit="10"/>
<defs>
<linearGradient id="paint0_linear_664_2366" x1="6.21698" y1="-0.337225" x2="47.2453" y2="30.3589" gradientUnits="userSpaceOnUse">
<stop stop-color="#00FFFF"/>
<stop offset="1" stop-color="#00FFFF" stop-opacity="0.47"/>
</linearGradient>
</defs>
</svg>
