<svg width="30" height="37" viewBox="0 0 30 37" fill="none" xmlns="http://www.w3.org/2000/svg">
<foreignObject x="-3.84534" y="-3.75195" width="36.9958" height="41.0693"><div xmlns="http://www.w3.org/1999/xhtml" style="height:100%;width:100%"></div></foreignObject><path data-figma-bg-blur-radius="4" d="M12.7705 32.6676H0.804688V0.898438H21.6701M21.6701 0.898438L28.5005 7.61507M21.6701 0.898438V7.61507H28.5005M28.5005 7.61507V32.6676H23.9924" stroke="#57FFFF" stroke-width="1.3" stroke-miterlimit="10"/>
<path d="M5.99609 7.61328H15.7206" stroke="#57FFFF" stroke-width="1.3" stroke-miterlimit="22.926" stroke-linecap="square" stroke-linejoin="round"/>
<path d="M5.99609 11.3613L22.8053 11.3613" stroke="#57FFFF" stroke-width="1.3" stroke-miterlimit="22.926" stroke-linecap="square" stroke-linejoin="round"/>
<path d="M5.99609 15.1074H22.8053" stroke="#57FFFF" stroke-width="1.3" stroke-miterlimit="22.926" stroke-linecap="square" stroke-linejoin="round"/>
<foreignObject x="10.5336" y="24.3926" width="15.8518" height="16.499"><div xmlns="http://www.w3.org/1999/xhtml" style="clip-path:url(#bgblur_0_664_2257_clip_path);height:100%;width:100%"></div></foreignObject><g data-figma-bg-blur-radius="4">
<path d="M21.7354 28.3922V35.7266L18.4595 33.7057L15.1836 35.7266V28.3922" fill="url(#paint0_linear_664_2257)" fill-opacity="0.32"/>
<path d="M21.7354 28.3922V35.7266L18.4595 33.7057L15.1836 35.7266V28.3922" stroke="#57FFFF" stroke-width="1.3" stroke-miterlimit="10"/>
</g>
<foreignObject x="8.51062" y="13.9941" width="19.897" height="20.209"><div xmlns="http://www.w3.org/1999/xhtml" style="clip-path:url(#bgblur_1_664_2257_clip_path);height:100%;width:100%"></div></foreignObject><path data-figma-bg-blur-radius="4" d="M18.4591 18.6444C19.0371 18.6444 19.4941 19.3382 20.0139 19.5084C20.5337 19.6785 21.3021 19.3848 21.735 19.6969C22.168 20.009 22.1117 20.8165 22.429 21.2422C22.7464 21.668 23.5498 21.8635 23.7229 22.3747C23.8959 22.8859 23.3778 23.5302 23.3778 24.0985C23.3778 24.6669 23.8959 25.3112 23.7229 25.8224C23.5498 26.3336 22.7464 26.529 22.429 26.9549C22.1117 27.3806 22.168 28.1881 21.735 28.5002C21.3021 28.8123 20.5337 28.5186 20.0139 28.6887C19.4941 28.8589 19.0371 29.5527 18.4591 29.5527C17.8812 29.5527 17.4242 28.8589 16.9044 28.6887C16.3846 28.5186 15.6162 28.8123 15.1833 28.5002C14.7502 28.1881 14.8066 27.3806 14.4893 26.9549C14.1719 26.529 13.3685 26.3336 13.1954 25.8224C13.0223 25.3112 13.5404 24.6669 13.5404 24.0985C13.5404 23.5302 13.0223 22.8859 13.1954 22.3747C13.3685 21.8635 14.1719 21.668 14.4893 21.2422C14.8066 20.8165 14.7502 20.009 15.1833 19.6969C15.6162 19.3848 16.3846 19.6785 16.9044 19.5084C17.4242 19.3382 17.8812 18.6444 18.4591 18.6444Z" fill="url(#paint1_linear_664_2257)" fill-opacity="0.32" stroke="#57FFFF" stroke-width="1.3" stroke-miterlimit="10"/>
<defs>
<clipPath id="bgblur_0_664_2257_clip_path" transform="translate(-10.5336 -24.3926)"><path d="M21.7354 28.3922V35.7266L18.4595 33.7057L15.1836 35.7266V28.3922"/>
</clipPath><clipPath id="bgblur_1_664_2257_clip_path" transform="translate(-8.51062 -13.9941)"><path d="M18.4591 18.6444C19.0371 18.6444 19.4941 19.3382 20.0139 19.5084C20.5337 19.6785 21.3021 19.3848 21.735 19.6969C22.168 20.009 22.1117 20.8165 22.429 21.2422C22.7464 21.668 23.5498 21.8635 23.7229 22.3747C23.8959 22.8859 23.3778 23.5302 23.3778 24.0985C23.3778 24.6669 23.8959 25.3112 23.7229 25.8224C23.5498 26.3336 22.7464 26.529 22.429 26.9549C22.1117 27.3806 22.168 28.1881 21.735 28.5002C21.3021 28.8123 20.5337 28.5186 20.0139 28.6887C19.4941 28.8589 19.0371 29.5527 18.4591 29.5527C17.8812 29.5527 17.4242 28.8589 16.9044 28.6887C16.3846 28.5186 15.6162 28.8123 15.1833 28.5002C14.7502 28.1881 14.8066 27.3806 14.4893 26.9549C14.1719 26.529 13.3685 26.3336 13.1954 25.8224C13.0223 25.3112 13.5404 24.6669 13.5404 24.0985C13.5404 23.5302 13.0223 22.8859 13.1954 22.3747C13.3685 21.8635 14.1719 21.668 14.4893 21.2422C14.8066 20.8165 14.7502 20.009 15.1833 19.6969C15.6162 19.3848 16.3846 19.6785 16.9044 19.5084C17.4242 19.3382 17.8812 18.6444 18.4591 18.6444Z"/>
</clipPath><linearGradient id="paint0_linear_664_2257" x1="18.2548" y1="35.9348" x2="20.7866" y2="28.6734" gradientUnits="userSpaceOnUse">
<stop stop-color="#00FFFF"/>
<stop offset="1" stop-color="#00FFFF" stop-opacity="0.47"/>
</linearGradient>
<linearGradient id="paint1_linear_664_2257" x1="18.1279" y1="29.8624" x2="21.6492" y2="18.8785" gradientUnits="userSpaceOnUse">
<stop stop-color="#00FFFF"/>
<stop offset="1" stop-color="#00FFFF" stop-opacity="0.47"/>
</linearGradient>
</defs>
</svg>
