<svg width="44" height="44" viewBox="0 0 44 44" fill="none" xmlns="http://www.w3.org/2000/svg">
<path d="M43 22.1641C43 23.5104 41.204 24.663 40.9523 25.9355C40.6929 27.2467 41.9063 28.997 41.406 30.2033C40.897 31.4306 38.7963 31.8077 38.066 32.8985C37.33 33.9978 37.7808 36.0818 36.8487 37.0139C35.9167 37.9458 33.8327 37.4948 32.7334 38.2307C31.6427 38.9609 31.2656 41.0615 30.0385 41.5704C28.8322 42.0706 27.0822 40.8571 25.7712 41.1164C24.4988 41.3681 23.3464 43.1641 22 43.1641C20.6536 43.1641 19.5011 41.3681 18.2285 41.1163C16.9174 40.8569 15.1671 42.0704 13.9607 41.5701C12.7334 41.0611 12.3564 38.9604 11.2655 38.23C10.1663 37.4941 8.08223 37.9448 7.15021 37.0128C6.21828 36.0808 6.66922 33.9967 5.93334 32.8975C5.20314 31.8067 3.10253 31.4297 2.59365 30.2025C2.09348 28.9963 3.30695 27.2462 3.04763 25.9353C2.79598 24.6629 1 23.5104 1 22.1641C1 20.8177 2.79598 19.6652 3.04772 18.3926C3.30712 17.0815 2.09366 15.3311 2.594 14.1248C3.10296 12.8975 5.20366 12.5204 5.93395 11.4296C6.66991 10.3303 6.21915 8.24629 7.15117 7.31427C8.08319 6.38234 10.1672 6.83328 11.2665 6.09741C12.3573 5.3672 12.7343 3.26659 13.9614 2.75771C15.1677 2.25754 16.9177 3.47101 18.2287 3.21169C19.5012 2.96004 20.6537 1.16406 22 1.16406C23.3464 1.16406 24.4989 2.96004 25.7715 3.21178C27.0826 3.47119 28.8329 2.25772 30.0393 2.75806C31.2666 3.26703 31.6436 5.36772 32.7345 6.09802C33.8337 6.83398 35.9178 6.38322 36.8498 7.31523C37.7817 8.24725 37.3308 10.3313 38.0667 11.4305C38.7969 12.5213 40.8975 12.8984 41.4064 14.1255C41.9065 15.3317 40.6931 17.0818 40.9524 18.3928C41.204 19.6652 43 20.8178 43 22.1641Z" stroke="url(#paint0_linear_2002_220)" stroke-width="1.3" stroke-miterlimit="10" stroke-linecap="round"/>
<path d="M43 22.1641C43 23.5104 41.204 24.663 40.9523 25.9355C40.6929 27.2467 41.9063 28.997 41.406 30.2033C40.897 31.4306 38.7963 31.8077 38.066 32.8985C37.33 33.9978 37.7808 36.0818 36.8487 37.0139C35.9167 37.9458 33.8327 37.4948 32.7334 38.2307C31.6427 38.9609 31.2656 41.0615 30.0385 41.5704C28.8322 42.0706 27.0822 40.8571 25.7712 41.1164C24.4988 41.3681 23.3464 43.1641 22 43.1641C20.6536 43.1641 19.5011 41.3681 18.2285 41.1163C16.9174 40.8569 15.1671 42.0704 13.9607 41.5701C12.7334 41.0611 12.3564 38.9604 11.2655 38.23C10.1663 37.4941 8.08223 37.9448 7.15021 37.0128C6.21828 36.0808 6.66922 33.9967 5.93334 32.8975C5.20314 31.8067 3.10253 31.4297 2.59365 30.2025C2.09348 28.9963 3.30695 27.2462 3.04763 25.9353C2.79598 24.6629 1 23.5104 1 22.1641C1 20.8177 2.79598 19.6652 3.04772 18.3926C3.30712 17.0815 2.09366 15.3311 2.594 14.1248C3.10296 12.8975 5.20366 12.5204 5.93395 11.4296C6.66991 10.3303 6.21915 8.24629 7.15117 7.31427C8.08319 6.38234 10.1672 6.83328 11.2665 6.09741C12.3573 5.3672 12.7343 3.26659 13.9614 2.75771C15.1677 2.25754 16.9177 3.47101 18.2287 3.21169C19.5012 2.96004 20.6537 1.16406 22 1.16406C23.3464 1.16406 24.4989 2.96004 25.7715 3.21178C27.0826 3.47119 28.8329 2.25772 30.0393 2.75806C31.2666 3.26703 31.6436 5.36772 32.7345 6.09802C33.8337 6.83398 35.9178 6.38322 36.8498 7.31523C37.7817 8.24725 37.3308 10.3313 38.0667 11.4305C38.7969 12.5213 40.8975 12.8984 41.4064 14.1255C41.9065 15.3317 40.6931 17.0818 40.9524 18.3928C41.204 19.6652 43 20.8178 43 22.1641Z" stroke="#57FFFF" stroke-width="1.3" stroke-miterlimit="10" stroke-linecap="round"/>
<path d="M24.1361 22.1801C25.5175 22.4227 26.5908 22.9081 27.3561 23.6361C28.1401 24.3641 28.5321 25.2694 28.5321 26.3521V28.2561C28.5321 29.5627 28.0375 30.6174 27.0481 31.4201C26.0588 32.2041 24.7428 32.5961 23.1001 32.5961H22.3721V35.3121H20.8881V32.5961H19.9081C18.2468 32.5961 16.9215 32.1014 15.9321 31.1121C14.9615 30.1227 14.4761 28.7787 14.4761 27.0801H15.9881C15.9881 28.3494 16.3428 29.3574 17.0521 30.1041C17.7615 30.8321 18.7228 31.1961 19.9361 31.1961H23.0721C24.2481 31.1961 25.1908 30.9254 25.9001 30.3841C26.6281 29.8427 26.9921 29.1334 26.9921 28.2561V26.3521C26.9921 25.6427 26.7308 25.0361 26.2081 24.5321C25.6855 24.0281 24.9575 23.7014 24.0241 23.5521L19.0121 22.7121C17.6681 22.4881 16.6135 22.0027 15.8481 21.2561C15.1015 20.5094 14.7281 19.5761 14.7281 18.4561V16.8321C14.7281 15.5441 15.2135 14.5081 16.1841 13.7241C17.1548 12.9401 18.4335 12.5481 20.0201 12.5481H20.8881V9.83207H22.3721V12.5481H23.1841C24.6961 12.5481 25.9095 13.0054 26.8241 13.9201C27.7575 14.8347 28.2241 16.0387 28.2241 17.5321H26.7121C26.7121 16.4494 26.3855 15.5814 25.7321 14.9281C25.0975 14.2561 24.2481 13.9201 23.1841 13.9201H20.0201C18.8815 13.9201 17.9668 14.1907 17.2761 14.7321C16.6041 15.2547 16.2681 15.9547 16.2681 16.8321V18.4561C16.2681 19.2027 16.5201 19.8281 17.0241 20.3321C17.5281 20.8361 18.2375 21.1627 19.1521 21.3121L24.1361 22.1801Z" fill="#57FFFF"/>
<defs>
<linearGradient id="paint0_linear_2002_220" x1="20.6875" y1="-0.14844" x2="36.4375" y2="45.7891" gradientUnits="userSpaceOnUse">
<stop stop-color="#00FFFF"/>
<stop offset="1" stop-color="#00FFFF" stop-opacity="0.47"/>
</linearGradient>
</defs>
</svg>
