<svg width="40" height="39" viewBox="0 0 40 39" fill="none" xmlns="http://www.w3.org/2000/svg">
<path d="M9.8486 1.90809L9.96681 1.26893L8.68849 1.03251L8.57028 1.67167L9.8486 1.90809ZM8.60767 5.04362L7.96851 4.92541L7.8503 5.56456L8.48944 5.68278L8.60767 5.04362ZM11.7432 6.28463C12.0962 6.34993 12.4353 6.1167 12.5006 5.7637C12.5659 5.41071 12.3326 5.07161 11.9796 5.00632L11.7432 6.28463ZM9.21506 3.67361C8.91859 3.87602 8.84233 4.28046 9.04475 4.57693C9.24716 4.87341 9.6516 4.94966 9.94807 4.74725L9.21506 3.67361ZM2.15 19.5V18.85H0.85V19.5H2.15ZM8.57028 1.67167L7.96851 4.92541L9.24683 5.16184L9.8486 1.90809L8.57028 1.67167ZM8.48944 5.68278L11.7432 6.28463L11.9796 5.00632L8.72589 4.40447L8.48944 5.68278ZM9.94807 4.74725C12.8107 2.79281 16.2709 1.65 20 1.65V0.35C16.0012 0.35 12.2868 1.57639 9.21506 3.67361L9.94807 4.74725ZM20 1.65C29.8583 1.65 37.85 9.64172 37.85 19.5H39.15C39.15 8.92375 30.5763 0.35 20 0.35V1.65ZM37.85 19.5C37.85 29.3583 29.8583 37.35 20 37.35V38.65C30.5763 38.65 39.15 30.0763 39.15 19.5H37.85ZM20 37.35C10.1417 37.35 2.15 29.3583 2.15 19.5H0.85C0.85 30.0763 9.42375 38.65 20 38.65V37.35Z" fill="#57FFFF"/>
<path d="M22.6174 19.172C23.9494 19.406 24.9844 19.874 25.7224 20.576C26.4784 21.278 26.8564 22.151 26.8564 23.195V25.031C26.8564 26.291 26.3794 27.308 25.4254 28.082C24.4714 28.838 23.2024 29.216 21.6184 29.216H20.9164V31.835H19.4854V29.216H18.5404C16.9384 29.216 15.6604 28.739 14.7064 27.785C13.7704 26.831 13.3024 25.535 13.3024 23.897H14.7604C14.7604 25.121 15.1024 26.093 15.7864 26.813C16.4704 27.515 17.3974 27.866 18.5674 27.866H21.5914C22.7254 27.866 23.6344 27.605 24.3184 27.083C25.0204 26.561 25.3714 25.877 25.3714 25.031V23.195C25.3714 22.511 25.1194 21.926 24.6154 21.44C24.1114 20.954 23.4094 20.639 22.5094 20.495L17.6764 19.685C16.3804 19.469 15.3634 19.001 14.6254 18.281C13.9054 17.561 13.5454 16.661 13.5454 15.581V14.015C13.5454 12.773 14.0134 11.774 14.9494 11.018C15.8854 10.262 17.1184 9.884 18.6484 9.884H19.4854V7.265H20.9164V9.884H21.6994C23.1574 9.884 24.3274 10.325 25.2094 11.207C26.1094 12.089 26.5594 13.25 26.5594 14.69H25.1014C25.1014 13.646 24.7864 12.809 24.1564 12.179C23.5444 11.531 22.7254 11.207 21.6994 11.207H18.6484C17.5504 11.207 16.6684 11.468 16.0024 11.99C15.3544 12.494 15.0304 13.169 15.0304 14.015V15.581C15.0304 16.301 15.2734 16.904 15.7594 17.39C16.2454 17.876 16.9294 18.191 17.8114 18.335L22.6174 19.172Z" fill="#57FFFF"/>
</svg>
