<svg width="980" height="22" viewBox="0 0 980 22" fill="none" xmlns="http://www.w3.org/2000/svg">
<path d="M979.498 20.9644V21.9311H498.275C495.38 21.9311 492.654 20.8001 490.595 18.7411L480.44 8.58624L476.042 4.18791C474.167 2.31257 471.678 1.28307 469.029 1.28307H0V0.316406H469.029C470.136 0.316406 471.214 0.48074 472.243 0.79974C472.886 0.993073 473.509 1.24924 474.104 1.56824C475.056 2.07091 475.941 2.71858 476.724 3.50157L491.282 18.0596C493.152 19.9349 495.636 20.9644 498.275 20.9644H979.498Z" fill="url(#paint0_linear_223_19325)"/>
<path d="M481.125 8.58631H420.192L412.874 1.28314L412.391 0.799805H472.247C472.889 0.993138 473.513 1.24931 474.107 1.56831L481.125 8.58631Z" fill="url(#paint1_linear_223_19325)"/>
<path d="M412.388 8.58631H351.454L343.648 0.799805H404.602L412.388 8.58631Z" fill="url(#paint2_linear_223_19325)"/>
<defs>
<linearGradient id="paint0_linear_223_19325" x1="450.288" y1="0.316406" x2="450.288" y2="21.9311" gradientUnits="userSpaceOnUse">
<stop stop-color="#33367B"/>
<stop offset="1" stop-color="#152136"/>
</linearGradient>
<linearGradient id="paint1_linear_223_19325" x1="446.758" y1="0.799805" x2="446.758" y2="8.58631" gradientUnits="userSpaceOnUse">
<stop stop-color="#33367B"/>
<stop offset="1" stop-color="#152136"/>
</linearGradient>
<linearGradient id="paint2_linear_223_19325" x1="378.018" y1="0.799805" x2="378.018" y2="8.58631" gradientUnits="userSpaceOnUse">
<stop stop-color="#33367B"/>
<stop offset="1" stop-color="#152136"/>
</linearGradient>
</defs>
</svg>
