<svg width="287" height="12" viewBox="0 0 287 12" fill="none" xmlns="http://www.w3.org/2000/svg">
<path d="M280.112 8.81266H240.725V7.71094H280.112V8.81266Z" fill="#3D3C51"/>
<path d="M240.725 8.81326H215.936C215.936 8.81326 215.845 8.72145 215.661 8.53783L211.805 4.6818H22.033V3.58008H211.805C211.989 3.58008 212.08 3.67188 212.08 3.8555L216.212 7.71154H240.725V8.81326Z" fill="#3D3C51"/>
<path d="M66.1061 11.2921H143.502C145.981 8.81318 147.358 7.43602 149.837 5.23258V4.13086H60.0466V5.23258C62.5255 7.43602 63.6273 8.81318 66.1061 11.2921Z" fill="#3D3C51"/>
<path fill-rule="evenodd" clip-rule="evenodd" d="M143.498 11.5676H66.1016C65.918 11.5676 65.8263 11.5676 65.8263 11.5676L59.7667 5.5081C59.5831 5.32448 59.4912 5.23266 59.4912 5.23266V4.13094C59.4912 3.85551 59.7667 3.58008 60.0421 3.58008H149.833C150.108 3.58008 150.108 3.85551 150.108 4.13094V5.23266C150.108 5.23266 150.108 5.32448 150.108 5.5081L144.049 11.5676C143.865 11.5676 143.681 11.5676 143.498 11.5676ZM66.377 10.7413H143.498L149.282 4.95723V4.6818H60.593V4.95723L66.377 10.7413Z" fill="#3D3C51"/>
<path d="M150.111 11.2921L157.272 4.13086H160.302L153.141 11.2921H150.111Z" fill="#3D3C51"/>
<path fill-rule="evenodd" clip-rule="evenodd" d="M153.419 11.5676H149.012L156.999 3.58008H161.406L153.419 11.5676ZM151.215 10.7413H153.143L159.203 4.40637H157.55L151.215 10.7413Z" fill="#3D3C51"/>
<path d="M160.572 11.2921L167.733 4.13086H171.038L163.877 11.2921H160.572Z" fill="#3D3C51"/>
<path fill-rule="evenodd" clip-rule="evenodd" d="M164.155 11.5676H159.473L167.736 3.58008H172.142L164.155 11.5676ZM161.951 10.7413H163.879L169.939 4.40637H168.011L161.951 10.7413Z" fill="#3D3C51"/>
<path d="M171.317 11.2921L178.478 4.13086H181.783L174.622 11.2921H171.317Z" fill="#3D3C51"/>
<path fill-rule="evenodd" clip-rule="evenodd" d="M174.624 11.5676H170.217L178.205 3.58008H182.887L174.624 11.5676ZM172.145 10.7413H174.073L180.408 4.40637H178.48L172.145 10.7413Z" fill="#3D3C51"/>
<path d="M22.584 4.13139H0.549561L4.13013 0.550781H19.0035L22.584 4.13139Z" fill="#3D3C51"/>
<path fill-rule="evenodd" clip-rule="evenodd" d="M22.5854 4.68232H0.550896C0.367275 4.4987 0.183621 4.40689 0 4.40689C0 4.03965 0.0917431 3.85603 0.275364 3.85603L3.8561 0.275427C3.8561 0.0918061 3.94784 0 4.13146 0H19.0048C19.1884 0 19.3719 0.0918061 19.5555 0.275427L23.1363 3.85603C23.1363 3.85603 23.1363 4.03965 23.1363 4.40689C22.9527 4.40689 22.769 4.4987 22.5854 4.68232ZM1.65252 3.5806H21.4836L19.0048 1.10172H4.40683L1.65252 3.5806Z" fill="#3D3C51"/>
<path d="M103.01 4.13139H42.1392L45.4444 0.550781H99.7043L103.01 4.13139Z" fill="#3D3C51"/>
<path fill-rule="evenodd" clip-rule="evenodd" d="M103.011 4.68232H42.1405C41.7733 4.4987 41.5896 4.40689 41.5896 4.40689C41.5896 4.03965 41.5896 3.85603 41.5896 3.85603L45.1703 0.275427C45.354 0.0918061 45.4457 0 45.4457 0H99.7056C99.7056 0 99.7974 0.0918061 99.981 0.275427L103.562 3.85603C103.562 3.85603 103.562 4.03965 103.562 4.40689C103.562 4.40689 103.378 4.4987 103.011 4.68232ZM43.2423 3.5806H101.909L99.4301 1.10172H45.7211L43.2423 3.5806Z" fill="#3D3C51"/>
<path d="M280.392 10.4665H279.566V6.05957H280.392V10.4665Z" fill="#3D3C51"/>
<path d="M283.691 10.4665H282.864V6.05957H283.691V10.4665Z" fill="#3D3C51"/>
<path d="M287 10.4665H286.174V6.05957H287V10.4665Z" fill="#3D3C51"/>
</svg>
