<svg width="37" height="38" viewBox="0 0 37 38" fill="none" xmlns="http://www.w3.org/2000/svg">
<path d="M9.04826 0.738281H13.2178C13.3486 0.738281 13.4739 0.791666 13.5663 0.886773L15.6089 2.98826H11.4393M9.04826 0.738281L11.0908 2.83977C11.1832 2.93488 11.3085 2.98826 11.4393 2.98826M9.04826 0.738281H1.49282C1.22064 0.738281 1 0.965293 1 1.24533V18.5071V33.9812C1 34.2612 1.22064 34.4882 1.49282 34.4882H20.3123M11.4393 2.98826H18.0384H23.1643C23.4365 2.98826 23.6571 3.21527 23.6571 3.49531V18.7383M17.1359 26.6133H9.65647M9.65647 26.6133C9.65647 27.2346 9.16693 27.7383 8.56305 27.7383C7.95917 27.7383 7.46963 27.2346 7.46963 26.6133C7.46963 25.992 7.95917 25.4883 8.56305 25.4883C9.16693 25.4883 9.65647 25.992 9.65647 26.6133ZM11.8395 31.1133H15.1198V26.6118M11.8395 31.1133C11.8395 31.7346 11.35 32.2383 10.7461 32.2383C10.1422 32.2383 9.65267 31.7346 9.65267 31.1133C9.65267 30.492 10.1422 29.9883 10.7461 29.9883C11.35 29.9883 11.8395 30.492 11.8395 31.1133ZM27.2001 20.824V13.1138M27.2001 13.1138C27.8039 13.1138 28.2935 12.6101 28.2935 11.9888C28.2935 11.3675 27.8039 10.8638 27.2001 10.8638C26.5962 10.8638 26.1066 11.3675 26.1066 11.9888C26.1066 12.6101 26.5962 13.1138 27.2001 13.1138ZM31.6788 15.3642C32.2827 15.3642 32.7723 14.8605 32.7723 14.2392C32.7723 13.6179 32.2827 13.1142 31.6788 13.1142C31.075 13.1142 30.5854 13.6179 30.5854 14.2392C30.5854 14.8605 31.075 15.3642 31.6788 15.3642ZM31.6788 15.3642V17.6137H27.2001M33.8132 27.7383C33.8132 28.3596 34.3027 28.8633 34.9066 28.8633C35.5105 28.8633 36 28.3596 36 27.7383C36 27.117 35.5105 26.6133 34.9066 26.6133C34.3027 26.6133 33.8132 27.117 33.8132 27.7383ZM33.8132 27.7383H30.199M3.8979 2.98826C3.8979 3.2883 3.6615 3.53153 3.36989 3.53153C3.07827 3.53153 2.84187 3.2883 2.84187 2.98826C2.84187 2.68823 3.07827 2.445 3.36989 2.445C3.6615 2.445 3.8979 2.68823 3.8979 2.98826ZM6.15768 2.98826C6.15768 3.2883 5.92128 3.53153 5.62966 3.53153C5.33805 3.53153 5.10165 3.2883 5.10165 2.98826C5.10165 2.68823 5.33805 2.445 5.62966 2.445C5.92128 2.445 6.15768 2.68823 6.15768 2.98826ZM8.41746 2.98826C8.41746 3.2883 8.18106 3.53153 7.88944 3.53153C7.59782 3.53153 7.36142 3.2883 7.36142 2.98826C7.36142 2.68823 7.59782 2.445 7.88944 2.445C8.18106 2.445 8.41746 2.68823 8.41746 2.98826ZM28.6177 31.9871C29.635 30.1694 30.199 28.0791 30.199 25.9007V21.62C26.7047 21.6011 23.6758 18.9564 23.6758 18.9564C23.6758 18.9564 20.6252 21.62 17.1152 21.62V25.9006C17.1152 30.3906 19.5187 34.5518 23.417 36.6778C23.5647 36.7583 23.741 36.759 23.8876 36.6764C24.1359 36.5365 24.5258 36.3129 24.7524 36.1631C25.704 35.5343 26.5525 34.7755 27.2802 33.9163L28.6177 31.9871ZM25.844 26.7224C25.844 25.4798 24.8649 24.4724 23.6571 24.4724C22.4494 24.4724 21.4703 25.4798 21.4703 26.7224C21.4703 27.5552 21.9101 28.2823 22.5637 28.6713V30.0973C22.5637 30.7187 23.0532 31.2223 23.6571 31.2223C24.261 31.2223 24.7505 30.7186 24.7505 30.0973V28.6713C25.4042 28.2823 25.844 27.5552 25.844 26.7224Z" stroke="url(#paint0_linear_709_14908)" stroke-width="1.3" stroke-miterlimit="10"/>
<defs>
<linearGradient id="paint0_linear_709_14908" x1="2.10915" y1="-5.29055" x2="24.012" y2="44.237" gradientUnits="userSpaceOnUse">
<stop stop-color="#00FFFF"/>
<stop offset="1" stop-color="#00FFFF" stop-opacity="0.47"/>
</linearGradient>
</defs>
</svg>
