<svg width="38" height="37" viewBox="0 0 38 37" fill="none" xmlns="http://www.w3.org/2000/svg">
<path d="M18.9989 17.6936V12.741M9.44328 17.6935V12.7409M9.44328 12.7409C11.9067 12.7409 13.6648 10.313 12.9339 7.92044L11.2278 2.33646C10.6833 0.554513 8.20338 0.554513 7.65897 2.33646L5.95285 7.92044C5.22188 10.313 6.97989 12.7409 9.44328 12.7409ZM28.5559 17.6935V12.7409M28.5559 12.7409C31.0193 12.7409 32.7769 10.313 32.0459 7.92044L30.3398 2.33646C29.7954 0.554513 27.3155 0.554513 26.771 2.33646L25.0649 7.92044C24.334 10.313 26.0925 12.7409 28.5559 12.7409ZM17.506 17.6939V22.0424H24.4801L29.8714 26.1854L36.6511 21.2963M2.92332 25.9375H13.0369V28.5622L17.8789 32.0091V35.9653M19.0005 12.7408C21.4639 12.7408 23.222 10.313 22.491 7.92044L20.7849 2.33646C20.2405 0.554513 17.7606 0.554513 17.2162 2.33646L15.51 7.92044C14.7791 10.313 16.5372 12.7408 19.0005 12.7408ZM37 17.6936C37 27.804 28.9412 36 19 36C9.05885 36 1 27.804 1 17.6936H37Z" stroke="url(#paint0_linear_709_13588)" stroke-width="1.3" stroke-miterlimit="10"/>
<defs>
<linearGradient id="paint0_linear_709_13588" x1="0.999998" y1="-3.15254" x2="-2.05258" y2="35.5235" gradientUnits="userSpaceOnUse">
<stop stop-color="#00FFFF"/>
<stop offset="1" stop-color="#00FFFF" stop-opacity="0.47"/>
</linearGradient>
</defs>
</svg>
