<svg width="34" height="41" viewBox="0 0 34 41" fill="none" xmlns="http://www.w3.org/2000/svg">
<path d="M30.2178 27.2035C30.87 25.5657 31.2206 23.7849 31.2206 21.8287V5.26175C25.704 6.95718 20.8184 6.61048 16.1115 1.73828C11.8586 6.14051 6.51656 6.95718 1 5.26175V10.708V18.0157V21.8287C1 30.1216 7.30721 35.2471 16.1115 39.7383C17.8356 38.8571 19.4638 37.9529 20.9669 37.0071M27.1366 25.9504C27.6681 24.6356 27.9116 23.2632 27.9116 21.8283V9.27972C23.715 9.51499 19.1744 8.42159 16.1101 5.69038C13.0436 8.42159 8.50297 9.51499 4.30859 9.27972V21.8283C4.30859 23.3785 4.58996 24.857 5.21756 26.2688C7.10484 30.5385 11.9804 33.6941 16.1101 35.9063C17.2648 35.2881 18.4797 34.5939 19.6701 33.8234M13.1703 20.7097C10.6688 21.8769 8.91559 24.4813 8.91559 27.4869V31.0854M23.2587 26.6495C22.9684 24.0038 21.3178 21.7685 19.0532 20.7097M23.6328 33.3437L25.482 34.9654L28.9663 30.6702M16.1103 12.0526C18.71 12.0526 20.8184 14.2302 20.8184 16.9152C20.8184 19.6002 18.71 21.7755 16.1103 21.7755C13.5106 21.7755 11.4021 19.6002 11.4021 16.9152C11.4021 14.2302 13.5106 12.0526 16.1103 12.0526ZM26.2997 39.7383C29.9916 39.7383 33 36.6288 33 32.818C33 29.0074 29.9916 25.8979 26.2997 25.8979C22.61 25.8979 19.5994 29.0074 19.5994 32.818C19.5994 36.6288 22.61 39.7383 26.2997 39.7383Z" stroke="url(#paint0_linear_709_15000)" stroke-width="1.3" stroke-miterlimit="10"/>
<defs>
<linearGradient id="paint0_linear_709_15000" x1="2.01408" y1="-4.62548" x2="27.3276" y2="44.9537" gradientUnits="userSpaceOnUse">
<stop stop-color="#00FFFF"/>
<stop offset="1" stop-color="#00FFFF" stop-opacity="0.47"/>
</linearGradient>
</defs>
</svg>
