<svg width="39" height="40" viewBox="0 0 39 40" fill="none" xmlns="http://www.w3.org/2000/svg">
<path d="M12.6662 7.19175C12.6662 8.8756 14.0362 10.2406 15.7262 10.2406H19.5896C19.5896 10.2406 17.4001 11.7812 17.4001 13.1636C17.4001 14.8475 18.7701 16.2125 20.4601 16.2125H28.3689C30.0589 16.2125 31.429 14.8475 31.429 13.1636M37.7607 17.8991H36.3046C34.6987 17.8991 33.3696 19.0785 33.1416 20.6154H30.3931C28.627 20.6154 27.1952 22.042 27.1952 23.8017C27.1952 25.0216 27.8834 26.0814 28.8941 26.6167M7.40492 26.2662C8.60541 29.0494 10.5813 31.4221 13.0616 33.1146C14.0389 33.7941 16.2145 35.1525 19.5009 35.6805C20.3334 35.8143 21.1877 35.8838 22.0581 35.8838C22.7039 35.8838 23.3409 35.8455 23.9667 35.7711M34.8329 10.4965C36.8221 13.1466 38 16.4362 38 20C38 23.5782 36.8125 26.88 34.8087 29.5356M7.38782 13.7733C9.81833 8.09582 15.4718 4.1162 22.0581 4.1162C22.6999 4.1162 23.3328 4.15397 23.9548 4.2275M9.2272 29.2802H13.5652C15.0212 29.2802 16.249 28.3105 16.6357 26.9842C18.3307 26.9045 19.6806 25.5103 19.6806 23.8017C19.6806 22.0419 18.2488 20.6154 16.4827 20.6154H13.7342M25.3606 11.8276C25.8533 10.0211 27.511 8.69268 29.4801 8.69268M29.4801 8.69268C31.4492 8.69268 33.1069 10.0212 33.5995 11.8277M29.4801 8.69268C30.5564 8.69268 31.429 7.82335 31.429 6.75088V6.26539C31.429 5.19293 30.5564 4.32351 29.48 4.32351C28.4036 4.32351 27.531 5.19293 27.531 6.26539V6.75088C27.531 7.82335 28.4037 8.69268 29.4801 8.69268ZM29.48 8.77248V10.1341M3.0948 24.6359C3.58749 22.8294 5.24517 21.501 7.21423 21.501M7.21423 21.501C9.18336 21.501 10.841 22.8295 11.3337 24.6361M7.21423 21.501C8.29061 21.501 9.16327 20.6317 9.16327 19.5592V19.0737C9.16327 18.0013 8.29067 17.1318 7.21429 17.1318C6.1379 17.1318 5.26531 18.0013 5.26531 19.0737V19.5592C5.26531 20.6317 6.13784 21.501 7.21423 21.501ZM7.21431 21.5808V22.9424M25.3606 37.4443C25.8533 35.6378 27.511 34.3094 29.4801 34.3094M29.4801 34.3094C31.4492 34.3094 33.1069 35.6379 33.5995 37.4444M29.4801 34.3094C30.5564 34.3094 31.429 33.44 31.429 32.3675V31.882C31.429 30.8095 30.5564 29.9402 29.48 29.9401C28.4036 29.9401 27.531 30.8095 27.531 31.882V32.3675C27.531 33.44 28.4037 34.3094 29.4801 34.3094ZM29.48 34.3892V35.7507M35.6943 7.19166C35.6943 10.6112 32.912 13.3833 29.48 13.3833C26.0479 13.3833 23.2657 10.6112 23.2657 7.19166C23.2657 3.7721 26.0479 1 29.48 1C32.912 1 35.6943 3.7721 35.6943 7.19166ZM13.4286 20C13.4286 23.4196 10.6464 26.1917 7.21429 26.1917C3.78223 26.1917 1 23.4196 1 20C1 16.5804 3.78223 13.8083 7.21429 13.8083C10.6464 13.8083 13.4286 16.5804 13.4286 20ZM35.6943 32.8083C35.6943 36.2279 32.912 39 29.48 39C26.0479 39 23.2657 36.2279 23.2657 32.8083C23.2657 29.3888 26.0479 26.6167 29.48 26.6167C32.912 26.6167 35.6943 29.3888 35.6943 32.8083Z" stroke="url(#paint0_linear_709_13914)" stroke-width="1.3" stroke-miterlimit="10"/>
<defs>
<linearGradient id="paint0_linear_709_13914" x1="2.91377" y1="-2.88157" x2="-1.11524" y2="43.0091" gradientUnits="userSpaceOnUse">
<stop stop-color="#00FFFF"/>
<stop offset="1" stop-color="#00FFFF" stop-opacity="0.47"/>
</linearGradient>
</defs>
</svg>
