<svg width="35" height="16" viewBox="0 0 35 16" fill="none" xmlns="http://www.w3.org/2000/svg">
<path d="M0.211719 15.165V0.625038H9.04172V2.23504H1.31172L2.09172 1.45504V7.51504L1.36172 6.97504H8.19172V8.58504H1.78172L2.09172 8.14504V15.165H0.211719ZM13.7739 15.165L13.3239 13.425H15.5539C16.4472 13.425 17.2139 13.2117 17.8539 12.785C18.4939 12.3517 18.9839 11.7184 19.3239 10.885C19.6639 10.0517 19.8339 9.03171 19.8339 7.82504C19.8339 6.55171 19.6706 5.51504 19.3439 4.71504C19.0239 3.90837 18.5439 3.31504 17.9039 2.93504C17.2706 2.55504 16.4839 2.36504 15.5439 2.36504H13.2439L13.7739 0.625038H15.3239C17.3306 0.625038 18.9006 1.19837 20.0339 2.34504C21.1672 3.49171 21.7339 5.31171 21.7339 7.80504C21.7339 9.41837 21.4606 10.7717 20.9139 11.865C20.3672 12.9584 19.6139 13.7817 18.6539 14.335C17.6939 14.8884 16.5872 15.165 15.3339 15.165H13.7739ZM11.9139 15.165V0.625038H13.7739V15.165H11.9139ZM22.5161 15.165L27.2261 0.625038H29.7861L34.4761 15.165H32.5161L31.1561 10.795L32.2261 11.555H24.9961L25.6961 9.92504H31.7261L31.1261 10.695L29.3461 4.90504L28.5261 1.97504H28.4661L27.6561 4.90504L24.4861 15.165H22.5161Z" fill="#23FFFF"/>
</svg>
