<svg width="36" height="38" viewBox="0 0 36 38" fill="none" xmlns="http://www.w3.org/2000/svg">
<path d="M22.3336 3.59919C24.3485 3.59919 25.8926 5.33516 25.5959 7.26704L24.4985 17.791C23.9748 21.6693 21.5283 23.6988 18 25.1885M7.64476 3.59912H7.50613C5.53963 3.59912 4.01012 5.25657 4.22831 7.15094L4.9768 17.4862C5.07974 18.5018 5.08982 18.6716 5.49057 19.5635M7.64476 3.59912C7.64476 4.79243 8.64268 5.75975 9.87369 5.75975H10.4497C11.6808 5.75975 12.6788 4.79242 12.6788 3.59918C12.6788 2.40587 11.6808 1.43855 10.4497 1.43855H9.87369C8.64268 1.43855 7.64483 2.40588 7.64476 3.59912ZM31.7692 21.4181V28.1926C31.7692 32.7467 27.9605 36.4385 23.2624 36.4385C20.9694 36.4385 18.3208 35.501 16.717 34.251M31.7692 21.4181C33.5535 21.4181 35 20.016 35 18.2864C35 16.5569 33.5535 15.1548 31.7692 15.1548C29.9849 15.1548 28.5384 16.5569 28.5384 18.2864C28.5384 20.016 29.9849 21.4181 31.7692 21.4181ZM11.9057 25.8135L8.69811 28.9385M8.69811 28.9385L5.49057 32.0635M8.69811 28.9385L5.49057 25.8135M8.69811 28.9385L11.9057 32.0635M20.067 5.75975H19.4909C18.2599 5.75975 17.2619 4.79242 17.2619 3.59911C17.2619 2.40587 18.2598 1.43848 19.4909 1.43848H20.067C21.298 1.43848 22.296 2.4058 22.296 3.59911C22.296 4.79242 21.298 5.75975 20.067 5.75975ZM16.3962 28.9385C16.3962 33.0806 12.9497 36.4385 8.69811 36.4385C4.44656 36.4385 1 33.0806 1 28.9385C1 24.7963 4.44656 21.4385 8.69811 21.4385C12.9497 21.4385 16.3962 24.7963 16.3962 28.9385Z" stroke="url(#paint0_linear_659_108592)" stroke-width="1.5" stroke-miterlimit="10"/>
<defs>
<linearGradient id="paint0_linear_659_108592" x1="5.49056" y1="-5.43652" x2="43.3003" y2="25.3479" gradientUnits="userSpaceOnUse">
<stop stop-color="#00FFFF"/>
<stop offset="1" stop-color="#00FFFF" stop-opacity="0.47"/>
</linearGradient>
</defs>
</svg>
