<svg width="38" height="34" viewBox="0 0 38 34" fill="none" xmlns="http://www.w3.org/2000/svg">
<path d="M26.0743 26.1628L26.0743 24.5448M34.7519 7.27173L34.7519 5.56441C34.7519 4.70552 34.7519 4.00924 34.7519 4.00924L16.2603 4.00925L11.7031 0.743432L1.00292 0.738284C1.00292 0.738284 1.00388 1.76895 1.00373 3.04183L1 32.7223C1 32.7223 1.70096 32.7067 2.57152 32.7218M20.8809 7.25856L3.84318 7.23804C3.84318 7.23804 3.84405 7.93264 3.84318 8.79153L3.82177 32.7221C3.82177 32.7221 3.11373 32.7224 2.24251 32.7214L36.9794 32.7383C36.9794 32.7383 36.9778 31.4732 36.9794 29.9087L36.9996 8.8291C37.0005 7.97021 36.9996 7.27226 36.9996 7.27226L30.6296 7.26386M23.7254 4.00824L23.7254 11.6168M28.4226 11.6168L28.4226 4.00824M31.5266 18.9899L31.5266 16.716C31.5266 13.6002 29.0808 11.0653 26.0746 11.0653C23.0684 11.0653 20.6226 13.6002 20.6226 16.716L20.6226 18.9899M23.2372 18.9899L23.2372 16.7123C23.2372 15.0909 24.5099 13.7719 26.0742 13.7719C27.6385 13.7719 28.9112 15.0909 28.9112 16.7123L28.9112 18.9899M2.58167 32.7216C2.58722 32.7216 2.59271 32.722 2.59833 32.722C2.60367 32.722 2.60893 32.7216 2.61426 32.7216L2.58167 32.7216ZM18.3419 25.2592L18.3419 20.9237C18.3419 19.8555 18.3419 18.9896 18.3419 18.9896L31.9419 18.9896C32.9726 18.9896 33.8138 19.0239 33.8138 19.0239L33.8081 26.9767C33.8081 28.0449 33.8138 28.9166 33.8081 28.9108L18.3419 28.9108C18.3419 28.9108 18.3419 28.0449 18.3419 26.9767L18.3419 25.2592ZM27.5128 23.0524C27.5128 23.8754 26.8691 24.5425 26.075 24.5425C25.281 24.5425 24.6372 23.8754 24.6372 23.0524C24.6372 22.2294 25.281 21.5622 26.075 21.5622C26.8691 21.5622 27.5128 22.2294 27.5128 23.0524ZM15.0175 10.2565L7.47163 10.2565C7.47163 10.2565 7.47163 10.4818 7.47163 10.7597L7.47163 13.0529C7.47163 13.3308 7.47163 13.5562 7.47163 13.5562L15.0534 13.5562C15.0534 13.5562 15.0534 13.3308 15.0534 13.0529L15.0175 10.2565Z" stroke="url(#paint0_linear_709_14636)" stroke-width="1.3" stroke-miterlimit="10"/>
<defs>
<linearGradient id="paint0_linear_709_14636" x1="1.63794" y1="42.6213" x2="25.3523" y2="-10.5953" gradientUnits="userSpaceOnUse">
<stop stop-color="#00FFFF"/>
<stop offset="1" stop-color="#00FFFF" stop-opacity="0.47"/>
</linearGradient>
</defs>
</svg>
