<svg width="32" height="44" viewBox="0 0 32 44" fill="none" xmlns="http://www.w3.org/2000/svg">
<path d="M21.0465 30.9592L16 38.3811M16 38.3811L10.9534 30.9592M16 38.3811V42.7385M25.1363 16.5947V17.9019M25.1363 17.9019V21.6492C25.1363 26.7028 21.0456 30.7995 15.9996 30.7995C10.9537 30.7995 6.86387 26.7027 6.86387 21.6492L6.86387 13.4453M25.1363 17.9019L25.1361 11.398C25.1361 8.25186 22.59 5.70149 19.4492 5.70149L9.87159 5.70149C7.92512 5.70149 6.1223 4.67519 5.12636 3L5.12636 10.2331C5.12636 12.3508 6.84022 14.0675 8.95433 14.0675L21.3082 14.0675C23.4223 14.0675 25.1363 15.7841 25.1363 17.9019ZM6.68039 15.261H4.11981C2.70645 15.261 1.56006 16.4074 1.56006 17.8208L1.56006 17.9703C1.56006 19.3837 2.70636 20.5301 4.11981 20.5301H6.68039M1.56321 17.9377L1.58728 21.9006C1.58728 23.8916 3.20122 25.5056 5.19209 25.5056L14.3096 25.5056M25.3195 15.261H27.8801C29.2935 15.261 30.4398 16.4074 30.4398 17.8208V17.9703C30.4398 19.3837 29.2935 20.5301 27.88 20.5301H25.3195M10.9441 30.7995L21.0558 30.7995C26.1926 30.7995 30.3568 34.9636 30.3568 40.1005V42.9999L1.64313 42.9999L1.64313 40.1005C1.64313 34.9636 5.80728 30.7995 10.9441 30.7995Z" stroke="url(#paint0_linear_659_105803)" stroke-width="1.5" stroke-miterlimit="10"/>
<defs>
<linearGradient id="paint0_linear_659_105803" x1="30.1631" y1="5.29599" x2="7.15357" y2="45.2566" gradientUnits="userSpaceOnUse">
<stop stop-color="#00FFFF"/>
<stop offset="1" stop-color="#00FFFF" stop-opacity="0.47"/>
</linearGradient>
</defs>
</svg>
