<svg width="41" height="41" viewBox="0 0 41 41" fill="none" xmlns="http://www.w3.org/2000/svg">
<path d="M16.4479 34.1587L18.3039 31.9911C19.0559 31.113 19.2346 29.8802 18.7631 28.8246C18.4177 28.0513 18.4162 27.1679 18.7588 26.3934L19.1572 25.4932C19.913 23.7851 19.3418 21.781 17.799 20.7281C16.1183 19.5809 13.8364 19.9304 12.576 21.5281C11.9798 22.2837 11.0704 22.7246 10.1079 22.7246H9.14555M31.8478 24.3872H26.849C25.6602 24.3872 24.5498 24.9809 23.8897 25.9697C22.9528 27.3729 23.1303 29.2412 24.3146 30.4429C24.9954 31.1339 25.377 32.0649 25.377 33.0349V33.8056M20.703 12.1411C20.9083 13.0483 20.88 14.0043 20.6 14.9155C20.1866 16.2607 20.5602 17.7241 21.5679 18.7065C22.7415 19.8508 24.5219 20.1014 25.9659 19.3255C26.9486 18.7974 27.752 17.9888 28.2734 17.0026L28.8919 15.8328M33.9895 3.86645L34.2884 6.71083L31.4441 7.00977M7.01186 37.1334L6.71291 34.289L9.55722 33.9901M3.86977 30.688C2.04958 27.7231 1 24.2341 1 20.5C1 9.73045 9.73046 1 20.5001 1C25.8107 1 30.6255 3.12296 34.1422 6.56642M37.1302 10.312C38.9504 13.2769 40 16.7659 40 20.5C40 31.2696 31.2695 40 20.4999 40C15.1825 40 10.3621 37.8716 6.84431 34.4203M20.501 9.9644C20.501 7.82903 18.77 6.09798 16.6346 6.09798H14.4613V8.27132C14.4613 10.4067 16.1923 12.1377 18.3277 12.1377H20.501M20.501 9.9644V12.1377M20.501 9.9644C20.501 7.82903 22.2328 6.09798 24.3681 6.09798H26.5415V8.27132C26.5415 10.4067 24.8104 12.1377 22.675 12.1377H20.501M20.501 12.1377C14.2151 12.1377 9.11968 17.2337 9.11968 23.5195C9.11968 29.8054 14.2154 34.9011 20.5013 34.9011C26.7872 34.9011 31.8829 29.8054 31.8829 23.5195C31.8829 17.2337 26.7869 12.1377 20.501 12.1377Z" stroke="url(#paint0_linear_709_13496)" stroke-width="1.3" stroke-miterlimit="10"/>
<defs>
<linearGradient id="paint0_linear_709_13496" x1="9.11984" y1="-0.443658" x2="34.8723" y2="3.6354" gradientUnits="userSpaceOnUse">
<stop stop-color="#00FFFF"/>
<stop offset="1" stop-color="#00FFFF" stop-opacity="0.47"/>
</linearGradient>
</defs>
</svg>
