<svg width="39" height="40" viewBox="0 0 39 40" fill="none" xmlns="http://www.w3.org/2000/svg">
<path d="M30.3875 12.9688H34.1237L31.1383 19.7607M23.3898 17.7561H19.1251C19.1251 17.7561 21.383 13.663 21.7557 13.2057C22.1325 12.7434 22.4893 13.0318 22.5233 13.4396C22.5573 13.8474 22.5063 19.7607 22.5063 19.7607M18.0188 19.8115C18.0188 19.8115 14.7146 19.853 14.558 19.8009C14.4015 19.7487 14.8089 19.4731 16.9753 16.3775C17.3799 15.7994 17.6027 15.3117 17.6974 14.9031L17.731 14.6403C17.731 13.6805 16.9529 12.9024 15.9932 12.9024C15.1486 12.9024 14.4448 13.5049 14.288 14.3035M28.0619 12.9701L25.3343 19.8285M2.34575 20.4282C1.41969 18.3448 0.842662 16.1507 1.03793 14.0868C1.08655 13.5734 1.32421 13.0963 1.68881 12.7318L4.69698 9.7234C5.55773 8.86258 6.98194 8.96621 7.70898 9.94264L11.1068 14.4598C11.4699 14.9426 11.4167 15.6202 10.9826 16.0403L8.78161 18.1705C8.51137 18.4319 8.46028 18.8465 8.6589 19.1659C11.5883 23.8759 15.5614 27.8494 20.271 30.779C20.5903 30.9775 21.0048 30.9264 21.2664 30.6562L23.3963 28.4551C23.8164 28.021 24.494 27.9678 24.9768 28.3309L29.4936 31.7289C30.4699 32.456 30.5736 33.8804 29.7128 34.7412L26.7046 37.7496C26.327 38.1272 25.828 38.3586 25.296 38.4054C18.0465 39.0439 9.22053 30.2174 9.22053 30.2174C9.22053 30.2174 6.01022 27.0068 3.60191 22.8678M13.1203 5.2416C18.9808 -0.0122531 27.9955 0.177363 33.6282 5.81052C39.4573 11.64 39.4573 21.0914 33.6282 26.9208C32.0034 28.5458 30.0972 29.7177 28.0664 30.4368M8.98056 11.4223C9.51113 9.90629 10.2936 8.45874 11.328 7.14484" stroke="url(#paint0_linear_659_108496)" stroke-width="1.5" stroke-miterlimit="10" stroke-linecap="square"/>
<defs>
<linearGradient id="paint0_linear_659_108496" x1="-1.2875" y1="-11.1614" x2="-15.4183" y2="15.2958" gradientUnits="userSpaceOnUse">
<stop stop-color="#00FFFF"/>
<stop offset="1" stop-color="#00FFFF" stop-opacity="0.47"/>
</linearGradient>
</defs>
</svg>
