<svg width="339" height="340" viewBox="0 0 339 340" fill="none" xmlns="http://www.w3.org/2000/svg">
<path d="M169.526 312.865H169.121L169.176 294.754H169.526V312.865Z" fill="#12F6FC"/>
<path d="M165.917 312.823L165.114 312.798L165.675 294.694L166.375 294.712L165.923 312.816L165.917 312.823ZM161.909 312.666L161.119 312.623L162.157 294.537L162.869 294.579L161.909 312.666ZM157.908 312.4L157.106 312.334L158.681 294.289L159.375 294.35L157.908 312.406V312.4ZM153.925 312.026L153.11 311.935L155.192 293.945L155.868 294.024L153.925 312.032V312.026ZM149.942 311.537L149.127 311.422L151.716 293.493L152.392 293.589L149.942 311.537ZM145.977 310.94L145.168 310.801L148.258 292.956L148.934 293.07L145.977 310.94ZM142.024 310.228L141.246 310.071L144.794 292.31L145.488 292.449L142.03 310.228H142.024ZM138.095 309.401L137.329 309.226L141.354 291.567L142.054 291.724L138.089 309.401H138.095ZM134.203 308.471L133.424 308.272L137.981 290.741L138.657 290.916L134.209 308.471H134.203ZM130.322 307.427L129.562 307.21L134.601 289.811L135.283 290.004L130.328 307.427H130.322ZM126.478 306.275L125.706 306.027L131.252 288.785L131.922 288.997L126.478 306.275ZM122.646 305.007L121.892 304.742L127.914 287.657L128.59 287.892L122.646 305.001V305.007ZM118.862 303.631L118.132 303.354L124.613 286.438L125.289 286.697L118.868 303.631H118.862ZM115.12 302.153L114.378 301.845L121.367 285.134L122.018 285.406L115.12 302.153ZM111.427 300.572L110.685 300.24L118.15 283.74L118.784 284.024L111.427 300.572ZM107.77 298.882L107.046 298.532L114.976 282.243L115.603 282.545L107.77 298.876V298.882ZM104.167 297.095L103.455 296.727L111.831 280.668L112.459 280.994L104.167 297.095ZM100.618 295.201L99.9123 294.808L108.747 278.997L109.357 279.335L100.612 295.201H100.618ZM97.1302 293.215L96.4302 292.799L105.712 277.241L106.309 277.597L97.1302 293.215ZM93.7024 291.133L93.0144 290.698L102.725 275.406L103.31 275.774L93.7024 291.127V291.133ZM90.3288 288.954L89.6529 288.502L99.7796 273.487L100.359 273.873L90.3288 288.954ZM87.0156 286.679L86.3639 286.214L96.8949 271.477L97.4682 271.888L87.0156 286.679ZM83.7688 284.32L83.1291 283.837L94.0705 269.401L94.6318 269.824L83.7628 284.313L83.7688 284.32ZM80.5945 281.863L79.9668 281.362L91.3125 267.247L91.8617 267.687L80.5884 281.863H80.5945ZM77.4865 279.323L76.8769 278.804L88.6209 265.014L89.1581 265.466L77.4865 279.323ZM74.4569 276.697L73.8534 276.16L85.9776 262.702L86.4966 263.167L74.4569 276.697ZM71.4998 273.988L70.9144 273.432L83.4128 260.319L83.9197 260.795L71.5058 273.982L71.4998 273.988ZM68.6211 271.206L68.0478 270.632L80.8962 257.862L81.385 258.351L68.6151 271.2L68.6211 271.206ZM65.8149 268.333L65.2657 267.754L78.4702 255.352L78.953 255.865L65.8149 268.333ZM63.0992 265.394L62.5681 264.796L76.0984 252.757L76.5692 253.282L63.0992 265.394ZM60.4619 262.37L59.9489 261.761L73.8172 250.107L74.2698 250.645L60.4619 262.37ZM57.9091 259.281L57.4142 258.659L71.6024 247.404L72.0429 247.953L57.9091 259.287V259.281ZM55.4529 256.124L54.9701 255.478L69.4721 244.628L69.8885 245.183L55.4529 256.124ZM53.0751 252.896L52.6104 252.244L67.4081 241.797L67.8124 242.371L53.0691 252.896H53.0751ZM50.7939 249.606L50.3473 248.943L65.4286 238.913L65.8149 239.492L50.7879 249.606H50.7939ZM48.6032 246.257L48.1747 245.569L63.5397 235.98L63.9078 236.565L48.6092 246.257H48.6032ZM46.5091 242.835L46.1047 242.153L61.7232 232.98L62.0853 233.59L46.5091 242.835ZM44.5175 239.377L44.1313 238.677L59.9972 229.945L60.3351 230.56L44.5115 239.377H44.5175ZM42.6165 235.853L42.2544 235.153L58.3557 226.861L58.6816 227.488L42.6165 235.853ZM40.8181 232.28L40.4741 231.562L56.8047 223.729L57.1064 224.362L40.8181 232.28ZM39.1223 228.659L38.7964 227.929L55.3442 220.566L55.6279 221.2L39.1223 228.665V228.659ZM37.523 224.99L37.2213 224.254L53.9683 217.35L54.2398 217.995L37.5291 224.984L37.523 224.99ZM36.0324 221.278L35.7488 220.53L52.6889 214.115L52.9423 214.773L36.0385 221.278H36.0324ZM34.6444 217.513L34.3849 216.77L51.4939 210.82L51.7293 211.496L34.6444 217.519V217.513ZM33.3589 213.711L33.1236 212.968L50.3835 207.47L50.6068 208.165L33.365 213.711H33.3589ZM32.1882 209.878L31.9649 209.112L49.3817 204.133L49.5748 204.809L32.1821 209.878H32.1882ZM31.12 206.004L30.9208 205.238L48.4704 200.766L48.6455 201.454L31.1139 206.01L31.12 206.004ZM30.1604 202.117L29.9794 201.333L47.6497 197.362L47.8066 198.044L30.1604 202.124V202.117ZM29.3155 198.189L29.1586 197.41L46.9315 193.922L47.0703 194.616L29.3155 198.189ZM28.5793 194.242L28.4465 193.457L46.3099 190.476L46.4306 191.176L28.5793 194.242ZM27.9577 190.277L27.849 189.492L45.7909 187.018L45.8875 187.724L27.9577 190.283V190.277ZM27.4447 186.3L27.3542 185.497L45.3624 183.554L45.4409 184.248L27.4447 186.3ZM27.0403 182.311L26.974 181.508L45.0305 180.072L45.0909 180.766L27.0464 182.311H27.0403ZM26.7507 178.31L26.7084 177.507L44.7952 176.572L44.8314 177.266L26.7507 178.31ZM26.5757 174.327L26.5515 173.524L44.6564 173.071L44.6745 173.765L26.5696 174.327H26.5757Z" fill="#12F6FC"/>
<path d="M26.5032 170.253V169.849H44.6201V170.199L26.5032 170.253Z" fill="#12F6FC"/>
<path d="M169.875 44.9429H169.525V26.832H169.93L169.875 44.9429Z" fill="#12F6FC"/>
<path d="M294.389 166.631L294.371 165.937L312.475 165.376L312.5 166.179L294.395 166.631H294.389ZM294.25 163.125L294.214 162.431L312.294 161.387L312.337 162.189L294.25 163.125ZM294.021 159.631L293.96 158.937L312.005 157.392L312.071 158.194L294.014 159.631H294.021ZM293.689 156.142L293.61 155.448L311.606 153.397L311.697 154.199L293.689 156.142ZM293.26 152.678L293.164 151.972L311.093 149.413L311.202 150.198L293.26 152.672V152.678ZM292.735 149.214L292.614 148.514L310.466 145.448L310.599 146.233L292.735 149.214ZM292.114 145.774L291.975 145.08L309.73 141.508L309.886 142.286L292.114 145.774ZM291.395 142.34L291.238 141.659L308.885 137.579L309.066 138.363L291.395 142.334V142.34ZM290.581 138.937L290.406 138.249L307.937 133.692L308.136 134.459L290.587 138.931L290.581 138.937ZM289.669 135.563L289.476 134.887L306.869 129.818L307.092 130.584L289.675 135.563H289.669ZM288.668 132.22L288.444 131.526L305.686 125.98L305.921 126.722L288.662 132.22H288.668ZM287.557 128.883L287.322 128.207L304.407 122.184L304.666 122.926L287.557 128.877V128.883ZM286.362 125.581L286.109 124.924L303.013 118.418L303.296 119.166L286.356 125.581H286.362ZM285.083 122.341L284.811 121.695L301.522 114.706L301.83 115.443L285.083 122.347V122.341ZM283.707 119.13L283.423 118.496L299.929 111.031L300.255 111.761L283.707 119.124V119.13ZM282.246 115.968L281.945 115.334L298.233 107.416L298.577 108.134L282.246 115.968ZM280.695 112.842L280.369 112.214L296.435 103.85L296.797 104.55L280.695 112.842ZM279.054 109.752L278.716 109.136L294.54 100.319L294.926 101.019L279.06 109.752H279.054ZM277.328 106.716L276.966 106.107L292.542 96.8611L292.946 97.5431L277.328 106.716ZM275.511 103.717L275.143 103.131L290.442 93.4393L290.87 94.1273L275.505 103.717H275.511ZM273.616 100.784L273.23 100.204L288.257 90.0899L288.704 90.7538L273.622 100.784H273.616ZM271.637 97.8991L271.233 97.3258L285.976 86.8009L286.441 87.4526L271.643 97.8991H271.637ZM269.579 95.0688L269.163 94.5135L283.598 83.5722L284.081 84.2179L269.579 95.0688ZM267.449 92.2987L267.008 91.7495L281.142 80.4159L281.637 81.0375L267.449 92.2927V92.2987ZM265.234 89.589L264.781 89.0519L278.589 77.326L279.102 77.9355L265.234 89.589ZM262.947 86.9397L262.476 86.4146L275.946 74.3025L276.477 74.9L262.947 86.9397ZM260.581 84.3447L260.098 83.8317L273.236 71.3635L273.785 71.9428L260.581 84.3447ZM258.149 81.8281L257.66 81.3392L270.43 68.4908L271.003 69.0642L258.155 81.8341L258.149 81.8281ZM255.638 79.3718L255.131 78.8951L267.545 65.7087L268.131 66.2639L255.632 79.3779L255.638 79.3718ZM253.067 76.9941L252.548 76.5294L264.588 62.999L265.192 63.5362L253.067 76.9941ZM250.43 74.6827L249.893 74.2301L261.565 60.3738L262.174 60.8928L250.43 74.6827ZM247.733 72.4498L247.183 72.0092L258.457 57.8331L259.078 58.334L247.733 72.4498ZM244.975 70.2953L244.413 69.8728L255.282 55.3829L255.922 55.8657L244.981 70.3013L244.975 70.2953ZM242.15 68.2132L241.577 67.8029L252.029 53.0112L252.681 53.4759L242.15 68.2132ZM239.265 66.2096L238.692 65.8234L248.722 50.7421L249.398 51.1947L239.271 66.2096H239.265ZM236.326 64.2845L235.741 63.9164L245.349 48.5635L246.037 48.998L236.326 64.2905V64.2845ZM233.333 62.4499L232.736 62.0938L241.915 46.4754L242.615 46.8918L233.333 62.4499ZM230.298 60.6937L229.688 60.3557L238.433 44.4899L239.139 44.8821L230.304 60.6937H230.298ZM227.214 59.0341L226.586 58.7082L234.878 42.607L235.59 42.9751L227.214 59.0341ZM224.076 57.4529L223.448 57.1512L231.281 40.8206L232.005 41.1706L224.076 57.459V57.4529ZM220.895 55.9623L220.261 55.6786L227.618 39.1308L228.36 39.4628L220.895 55.9623ZM217.684 54.5622L217.033 54.2906L223.931 37.5436L224.673 37.8514L217.684 54.5622ZM214.438 53.2586L213.762 52.9991L220.183 36.0651L220.913 36.3427L214.432 53.2586H214.438ZM211.131 52.0335L210.461 51.7982L216.405 34.6891L217.159 34.9546L211.137 52.0396L211.131 52.0335ZM207.799 50.911L207.129 50.6998L212.573 33.4218L213.345 33.6692L207.799 50.911ZM204.456 49.8911L203.774 49.698L208.729 32.2751L209.489 32.4924L204.456 49.8911ZM201.076 48.9557L200.4 48.7807L204.848 31.225L205.627 31.4242L201.07 48.9557H201.076ZM197.691 48.1289L196.991 47.972L200.956 30.2957L201.722 30.4707L197.697 48.1289H197.691ZM194.257 47.3866L193.563 47.2478L197.021 29.4689L197.799 29.6258L194.251 47.3866H194.257ZM190.793 46.7469L190.117 46.6323L193.074 28.7628L193.883 28.9016L190.793 46.7469ZM187.329 46.1977L186.653 46.1012L189.103 28.1533L189.918 28.2679L187.329 46.1977ZM183.859 45.7572L183.183 45.6787L185.126 27.6705L185.941 27.761L183.859 45.7512V45.7572ZM180.376 45.4072L179.682 45.3468L181.149 27.2903L181.952 27.3566L180.376 45.4011V45.4072ZM176.894 45.1537L176.182 45.1115L177.142 27.0247L177.932 27.067L176.894 45.1537ZM173.382 45.0028L172.682 44.9847L173.135 26.8799L173.937 26.904L173.376 45.0089L173.382 45.0028Z" fill="#12F6FC"/>
<path d="M312.542 169.849H294.431V169.499L312.542 169.444V169.849Z" fill="#12F6FC"/>
<!--<path d="M169.526 61.7929L164.571 51.4912H174.474L169.526 61.7929Z" fill="#12F6FC"/>
<path d="M169.526 277.234L174.474 287.536H164.571L169.526 277.234Z" fill="#12F6FC"/>
<path d="M277.25 169.516L287.551 164.562V174.465L277.25 169.516Z" fill="#12F6FC"/>
<path d="M61.8019 169.516L51.5002 174.465V164.562L61.8019 169.516Z" fill="#12F6FC"/>-->
<path d="M170.28 0.0371094H168.771V12.9519H170.28V0.0371094Z" fill="#12F6FC"/>
<path d="M134.956 3.58964L133.48 3.90332L136.165 16.5359L137.641 16.2222L134.956 3.58964Z" fill="#12F6FC"/>
<path d="M101.146 14.4117L99.7673 15.0254L105.02 26.8236L106.399 26.21L101.146 14.4117Z" fill="#12F6FC"/>
<path d="M70.3158 32.0233L69.0952 32.9102L76.6863 43.3584L77.9069 42.4716L70.3158 32.0233Z" fill="#12F6FC"/>
<path d="M43.8367 55.6591L42.8271 56.7803L52.4247 65.4219L53.4342 64.3007L43.8367 55.6591Z" fill="#12F6FC"/>
<path d="M22.8396 84.292L22.0852 85.5986L33.2697 92.056L34.0241 90.7494L22.8396 84.292Z" fill="#12F6FC"/>
<path d="M8.25968 116.659L7.79346 118.094L20.0762 122.085L20.5424 120.65L8.25968 116.659Z" fill="#12F6FC"/>
<path d="M0.719962 151.344L0.562256 152.845L13.4063 154.195L13.564 152.694L0.719962 151.344Z" fill="#12F6FC"/>
<path d="M13.4107 185.495L0.56665 186.845L0.724356 188.345L13.5684 186.995L13.4107 185.495Z" fill="#12F6FC"/>
<path d="M20.0647 217.622L7.78198 221.613L8.24821 223.048L20.5309 219.057L20.0647 217.622Z" fill="#12F6FC"/>
<path d="M33.2851 247.63L22.1006 254.087L22.855 255.394L34.0395 248.936L33.2851 247.63Z" fill="#12F6FC"/>
<path d="M52.4157 274.281L42.8167 282.921L43.826 284.042L53.4251 275.402L52.4157 274.281Z" fill="#12F6FC"/>
<path d="M76.701 296.317L69.1099 306.766L70.3305 307.652L77.9216 297.204L76.701 296.317Z" fill="#12F6FC"/>
<path d="M105.018 312.872L99.7649 324.67L101.143 325.284L106.396 313.485L105.018 312.872Z" fill="#12F6FC"/>
<path d="M136.173 323.179L133.485 335.812L134.961 336.125L137.648 323.493L136.173 323.179Z" fill="#12F6FC"/>
<path d="M170.28 326.751H168.771V339.666H170.28V326.751Z" fill="#12F6FC"/>
<path d="M202.884 323.167L201.408 323.48L204.093 336.113L205.569 335.799L202.884 323.167Z" fill="#12F6FC"/>
<path d="M234.029 312.873L232.651 313.486L237.904 325.285L239.282 324.671L234.029 312.873Z" fill="#12F6FC"/>
<path d="M262.357 296.332L261.136 297.219L268.728 307.667L269.948 306.78L262.357 296.332Z" fill="#12F6FC"/>
<path d="M286.629 274.266L285.62 275.387L295.217 284.028L296.227 282.907L286.629 274.266Z" fill="#12F6FC"/>
<path d="M305.78 247.642L305.025 248.948L316.21 255.406L316.964 254.099L305.78 247.642Z" fill="#12F6FC"/>
<path d="M318.985 217.62L318.518 219.055L330.801 223.046L331.267 221.611L318.985 217.62Z" fill="#12F6FC"/>
<path d="M325.64 185.494L325.483 186.994L338.327 188.344L338.484 186.844L325.64 185.494Z" fill="#12F6FC"/>
<path d="M338.343 151.326L325.499 152.676L325.656 154.176L338.5 152.826L338.343 151.326Z" fill="#12F6FC"/>
<path d="M330.793 116.666L318.51 120.657L318.977 122.092L331.259 118.101L330.793 116.666Z" fill="#12F6FC"/>
<path d="M316.214 84.3072L305.028 90.7627L305.782 92.0694L316.968 85.614L316.214 84.3072Z" fill="#12F6FC"/>
<path d="M295.22 55.6637L285.621 64.3037L286.63 65.4251L296.229 56.7851L295.22 55.6637Z" fill="#12F6FC"/>
<path d="M268.715 32.0127L261.124 42.4609L262.344 43.3478L269.935 32.8995L268.715 32.0127Z" fill="#12F6FC"/>
<path d="M237.914 14.4088L232.661 26.207L234.039 26.8207L239.292 15.0224L237.914 14.4088Z" fill="#12F6FC"/>
<path d="M204.11 3.59642L201.422 16.2285L202.898 16.5425L205.585 3.91036L204.11 3.59642Z" fill="#12F6FC"/>

<path d="M169.525 321.247C160.606 321.247 151.662 320.462 142.947 318.924L143.34 316.697C151.921 318.217 160.732 318.99 169.519 318.99C182.03 318.99 194.462 317.439 206.471 314.379L207.033 316.576C194.842 319.684 182.223 321.259 169.525 321.259V321.247ZM221.553 312.068L220.774 309.944C221.48 309.684 222.18 309.424 222.88 309.153L223.689 311.265C222.977 311.537 222.265 311.802 221.553 312.062V312.068ZM113.744 310.638C110.932 309.521 108.108 308.302 105.356 307.017L106.315 304.965C109.025 306.232 111.807 307.433 114.577 308.531L113.744 310.638ZM274.642 278.809L273.073 277.18C275.221 275.11 277.334 272.943 279.349 270.747L281.015 272.279C278.969 274.506 276.821 276.703 274.642 278.809ZM56.8589 270.982C56.352 270.415 55.845 269.847 55.3502 269.274L57.058 267.783C57.5529 268.351 58.0478 268.906 58.5487 269.467L56.8649 270.982H56.8589ZM45.9477 257.337C33.3286 239.546 24.8676 219.697 20.8001 198.345L23.027 197.923C27.0342 218.955 35.3684 238.508 47.7944 256.027L45.9477 257.337ZM299.222 247.989L297.285 246.818C308.371 228.454 315.233 208.339 317.677 187.036L319.928 187.295C317.448 208.931 310.484 229.347 299.222 247.995V247.989ZM320.906 172.129L318.643 172.093C318.655 171.345 318.661 170.597 318.661 169.848C318.661 162.739 318.154 155.6 317.158 148.617L319.397 148.297C320.405 155.382 320.918 162.636 320.918 169.848C320.918 170.609 320.918 171.369 320.9 172.129H320.906ZM20.4018 168.134L18.1387 168.11C18.1749 165.081 18.2956 162.015 18.5128 158.997L20.7699 159.16C20.5587 162.13 20.438 165.147 20.4018 168.134ZM314.304 133.922C314.123 133.192 313.936 132.468 313.748 131.744L315.939 131.164C316.132 131.9 316.319 132.637 316.506 133.373L314.31 133.916L314.304 133.922ZM36.7625 101.846L34.7468 100.814C35.0969 100.139 35.4469 99.4626 35.809 98.7867L37.8066 99.8489C37.4565 100.513 37.1065 101.177 36.7625 101.846ZM45.4951 87.0065L43.6122 85.7452C55.5493 67.9059 71.4936 52.4926 89.7131 41.165L90.9081 43.0902C72.9601 54.2488 57.2512 69.4327 45.4951 87.0065ZM287.352 78.4188C285.523 76.0652 283.598 73.7357 281.63 71.4967L283.332 70C285.33 72.2752 287.285 74.6409 289.144 77.0307L287.358 78.4188H287.352ZM259.754 51.0986C242.651 38.0812 223.393 29.0891 202.512 24.3758L203.013 22.167C224.208 26.9527 243.761 36.0776 261.124 49.2941L259.754 51.0986ZM117.77 29.94L116.985 27.8157C119.822 26.7657 122.73 25.788 125.633 24.9129L126.291 27.0795C123.436 27.9425 120.57 28.9081 117.776 29.94H117.77ZM187.769 21.817C187.027 21.7265 186.284 21.642 185.536 21.5635L185.777 19.3125C186.532 19.391 187.286 19.4815 188.041 19.572L187.769 21.817Z" fill="#12F6FC"/>
<!--<path d="M68.0114 169.848H66.5027V169.088L68.0175 169.1L68.0114 169.848Z" fill="#12F6FC"/>
<path d="M117.74 82.5174L116.967 81.2199C119.387 79.7836 121.898 78.4257 124.42 77.1946L125.084 78.5524C122.598 79.7655 120.123 81.0992 117.74 82.5174ZM137.975 73.3322L137.504 71.8959C145.319 69.3431 153.454 67.7378 161.692 67.1162L161.807 68.6189C153.69 69.2284 145.675 70.8156 137.975 73.3262V73.3322Z" fill="#12F6FC"/>
<path d="M168.777 68.3409L168.765 66.8322L169.525 66.8262V68.3349L168.777 68.3409Z" fill="#12F6FC"/>
<path d="M169.411 273.246C156.55 273.234 144.004 270.886 132.121 266.275L132.942 264.163C144.565 268.671 156.834 270.97 169.411 270.983V273.246ZM199.489 268.84L198.831 266.674C219.018 260.572 237.213 247.917 250.05 231.037L251.854 232.407C238.728 249.661 220.128 262.6 199.483 268.84H199.489ZM84.8007 229.136C84.3662 228.515 83.9317 227.887 83.5092 227.253L85.3922 225.992C85.8086 226.614 86.225 227.229 86.6535 227.839L84.8007 229.136ZM260.176 219.625L258.191 218.533C258.553 217.875 258.903 217.217 259.253 216.553L261.263 217.603C260.907 218.279 260.55 218.955 260.176 219.625ZM75.9957 213.995C69.4418 200.138 66.1226 185.286 66.1226 169.849H68.3857C68.3857 184.954 71.6325 199.48 78.0416 213.029L75.9957 213.995ZM270.056 158.726C268.692 146.27 265.077 134.327 259.295 123.229L261.305 122.185C267.213 133.537 270.912 145.745 272.307 158.479L270.056 158.726ZM241.842 99.1495C226.803 83.7664 207.702 73.7363 186.604 70.1516L186.984 67.9186C208.553 71.5879 228.082 81.8413 243.459 97.5683L241.842 99.1495ZM171.764 68.7394C171.022 68.7213 170.274 68.7153 169.525 68.7153V66.4521C170.292 66.4521 171.052 66.4582 171.813 66.4763L171.764 68.7394Z" fill="#12F6FC"/>-->
</svg>
