<svg width="338" height="340" viewBox="0 0 338 340" fill="none" xmlns="http://www.w3.org/2000/svg">
<path d="M168.963 312.828H168.559L168.613 294.717H168.963V312.828Z" fill="#12F6FC"/>
<path d="M165.354 312.785L164.552 312.761L165.113 294.656L165.813 294.675L165.36 312.779L165.354 312.785ZM161.347 312.629L160.556 312.586L161.595 294.5L162.307 294.542L161.347 312.629ZM157.346 312.363L156.543 312.297L158.118 294.252L158.812 294.312L157.346 312.369V312.363ZM153.363 311.989L152.548 311.898L154.63 293.908L155.306 293.987L153.363 311.995V311.989ZM149.38 311.5L148.565 311.385L151.154 293.456L151.83 293.552L149.38 311.5ZM145.415 310.903L144.606 310.764L147.696 292.918L148.372 293.033L145.415 310.903ZM141.462 310.19L140.683 310.033L144.232 292.273L144.926 292.411L141.468 310.19H141.462ZM137.533 309.364L136.767 309.189L140.792 291.53L141.492 291.687L137.527 309.364H137.533ZM133.641 308.434L132.862 308.235L137.419 290.704L138.094 290.879L133.647 308.434H133.641ZM129.76 307.39L129 307.173L134.039 289.774L134.721 289.967L129.766 307.39H129.76ZM125.916 306.238L125.143 305.99L130.69 288.748L131.359 288.959L125.916 306.238ZM122.084 304.97L121.329 304.705L127.352 287.62L128.028 287.855L122.084 304.964V304.97ZM118.3 303.594L117.57 303.317L124.051 286.401L124.727 286.66L118.306 303.594H118.3ZM114.558 302.116L113.816 301.808L120.804 285.097L121.456 285.369L114.558 302.116ZM110.865 300.535L110.122 300.203L117.588 283.703L118.221 283.987L110.865 300.535ZM107.208 298.845L106.483 298.495L114.413 282.206L115.041 282.508L107.208 298.839V298.845ZM103.605 297.058L102.893 296.69L111.269 280.631L111.897 280.957L103.605 297.058ZM100.056 295.163L99.3501 294.771L108.185 278.96L108.795 279.298L100.05 295.163H100.056ZM96.568 293.178L95.8679 292.761L105.15 277.203L105.747 277.559L96.568 293.178ZM93.1401 291.096L92.4521 290.661L102.162 275.369L102.748 275.737L93.1401 291.09V291.096ZM89.7666 288.917L89.0907 288.465L99.2173 273.45L99.7967 273.836L89.7666 288.917ZM86.4534 286.642L85.8016 286.177L96.3326 271.44L96.9059 271.85L86.4534 286.642ZM83.2066 284.282L82.5669 283.8L93.5082 269.364L94.0695 269.786L83.2006 284.276L83.2066 284.282ZM80.0322 281.826L79.4046 281.325L90.7503 267.21L91.2995 267.65L80.0262 281.826H80.0322ZM76.9242 279.285L76.3147 278.766L88.0587 264.977L88.5958 265.429L76.9242 279.285ZM73.8947 276.66L73.2912 276.123L85.4154 262.665L85.9344 263.13L73.8947 276.66ZM70.9375 273.951L70.3522 273.395L82.8505 260.281L83.3575 260.758L70.9436 273.945L70.9375 273.951ZM68.0589 271.168L67.4856 270.595L80.334 257.825L80.8228 258.314L68.0528 271.162L68.0589 271.168ZM65.2526 268.296L64.7034 267.716L77.9079 255.315L78.3907 255.828L65.2526 268.296ZM62.5369 265.357L62.0058 264.759L75.5362 252.72L76.0069 253.245L62.5369 265.357ZM59.8996 262.333L59.3867 261.724L73.255 250.07L73.7076 250.607L59.8996 262.333ZM57.3468 259.243L56.852 258.622L71.0401 247.367L71.4807 247.916L57.3468 259.249V259.243ZM54.8906 256.087L54.4078 255.441L68.9098 244.591L69.3262 245.146L54.8906 256.087ZM52.5129 252.858L52.0482 252.207L66.8459 241.76L67.2502 242.333L52.5068 252.858H52.5129ZM50.2316 249.569L49.7851 248.906L64.8664 238.875L65.2526 239.455L50.2256 249.569H50.2316ZM48.041 246.22L47.6125 245.532L62.9774 235.942L63.3456 236.528L48.047 246.22H48.041ZM45.9468 242.798L45.5425 242.116L61.1609 232.943L61.523 233.553L45.9468 242.798ZM43.9553 239.34L43.5691 238.64L59.4349 229.908L59.7729 230.523L43.9493 239.34H43.9553ZM42.0543 235.816L41.6922 235.116L57.7934 226.824L58.1193 227.451L42.0543 235.816ZM40.2559 232.243L39.9119 231.525L56.2424 223.692L56.5442 224.325L40.2559 232.243ZM38.56 228.622L38.2342 227.892L54.782 220.529L55.0656 221.163L38.56 228.628V228.622ZM36.9608 224.953L36.659 224.217L53.406 217.313L53.6776 217.958L36.9668 224.947L36.9608 224.953ZM35.4702 221.241L35.1865 220.493L52.1266 214.078L52.3801 214.736L35.4762 221.241H35.4702ZM34.0821 217.476L33.8226 216.733L50.9317 210.783L51.1671 211.459L34.0821 217.482V217.476ZM32.7967 213.674L32.5613 212.931L49.8213 207.433L50.0446 208.127L32.8027 213.674H32.7967ZM31.6259 209.841L31.4026 209.075L48.8195 204.096L49.0126 204.772L31.6199 209.841H31.6259ZM30.5577 205.967L30.3586 205.2L47.9082 200.729L48.0832 201.417L30.5517 205.973L30.5577 205.967ZM29.5982 202.08L29.4171 201.296L47.0874 197.325L47.2443 198.007L29.5982 202.086V202.08ZM28.7533 198.152L28.5964 197.373L46.3693 193.885L46.5081 194.579L28.7533 198.152ZM28.017 194.205L27.8842 193.42L45.7477 190.439L45.8684 191.139L28.017 194.205ZM27.3954 190.24L27.2868 189.455L45.2287 186.981L45.3252 187.687L27.3954 190.246V190.24ZM26.8824 186.263L26.7919 185.46L44.8002 183.517L44.8786 184.211L26.8824 186.263ZM26.4781 182.274L26.4117 181.471L44.4683 180.035L44.5286 180.729L26.4841 182.274H26.4781ZM26.1884 178.273L26.1462 177.47L44.2329 176.534L44.2691 177.228L26.1884 178.273ZM26.0134 174.289L25.9893 173.487L44.0941 173.034L44.1122 173.728L26.0074 174.289H26.0134Z" fill="#12F6FC"/>
<path d="M25.9409 170.216V169.812H44.0578V170.162L25.9409 170.216Z" fill="#12F6FC"/>
<path d="M169.313 44.9058H168.963V26.7949H169.367L169.313 44.9058Z" fill="#12F6FC"/>
<path d="M293.826 166.594L293.808 165.9L311.913 165.339L311.937 166.141L293.832 166.594H293.826ZM293.688 163.088L293.651 162.394L311.732 161.35L311.774 162.152L293.688 163.088ZM293.458 159.594L293.398 158.899L311.442 157.355L311.509 158.157L293.452 159.594H293.458ZM293.126 156.105L293.048 155.411L311.044 153.359L311.135 154.162L293.126 156.105ZM292.698 152.641L292.601 151.935L310.531 149.376L310.64 150.161L292.698 152.635V152.641ZM292.173 149.177L292.052 148.477L309.904 145.411L310.036 146.196L292.173 149.177ZM291.551 145.737L291.412 145.043L309.167 141.471L309.324 142.249L291.551 145.737ZM290.833 142.303L290.676 141.621L308.322 137.542L308.503 138.326L290.833 142.297V142.303ZM290.018 138.9L289.843 138.212L307.375 133.655L307.574 134.422L290.024 138.894L290.018 138.9ZM289.107 135.526L288.914 134.85L306.307 129.781L306.53 130.547L289.113 135.526H289.107ZM288.105 132.183L287.882 131.489L305.124 125.943L305.359 126.685L288.099 132.183H288.105ZM286.995 128.845L286.76 128.17L303.844 122.147L304.104 122.889L286.995 128.839V128.845ZM285.8 125.544L285.546 124.887L302.45 118.381L302.734 119.129L285.794 125.544H285.8ZM284.521 122.304L284.249 121.658L300.96 114.669L301.268 115.406L284.521 122.31V122.304ZM283.145 119.093L282.861 118.459L299.367 110.994L299.692 111.724L283.145 119.087V119.093ZM281.684 115.931L281.382 115.297L297.671 107.379L298.015 108.097L281.684 115.931ZM280.133 112.805L279.807 112.177L295.872 103.812L296.234 104.513L280.133 112.805ZM278.492 109.715L278.154 109.099L293.977 100.282L294.364 100.982L278.498 109.715H278.492ZM276.766 106.679L276.404 106.07L291.98 96.824L292.384 97.506L276.766 106.679ZM274.949 103.68L274.581 103.094L289.88 93.4022L290.308 94.0902L274.943 103.68H274.949ZM273.054 100.747L272.668 100.167L287.695 90.0528L288.141 90.7167L273.06 100.747H273.054ZM271.075 97.862L270.67 97.2887L285.414 86.7638L285.878 87.4155L271.081 97.862H271.075ZM269.017 95.0316L268.6 94.4764L283.036 83.5351L283.519 84.1808L269.017 95.0316ZM266.886 92.2616L266.446 91.7124L280.58 80.3788L281.075 81.0004L266.886 92.2556V92.2616ZM264.672 89.5519L264.219 89.0148L278.027 77.2889L278.54 77.8984L264.672 89.5519ZM262.384 86.9026L261.914 86.3775L275.384 74.2654L275.915 74.8629L262.384 86.9026ZM260.019 84.3075L259.536 83.7946L272.674 71.3264L273.223 71.9057L260.019 84.3075ZM257.587 81.791L257.098 81.3021L269.868 68.4537L270.441 69.0271L257.593 81.797L257.587 81.791ZM255.076 79.3347L254.569 78.858L266.983 65.6716L267.568 66.2268L255.07 79.3408L255.076 79.3347ZM252.505 76.957L251.986 76.4923L264.026 62.9619L264.629 63.499L252.505 76.957ZM249.868 74.6456L249.331 74.193L261.002 60.3367L261.612 60.8557L249.868 74.6456ZM247.17 72.4127L246.621 71.9721L257.894 57.796L258.516 58.2969L247.17 72.4127ZM244.412 70.2582L243.851 69.8357L254.72 55.3458L255.36 55.8286L244.418 70.2642L244.412 70.2582ZM241.588 68.1761L241.015 67.7657L251.467 52.9741L252.119 53.4388L241.588 68.1761ZM238.703 66.1725L238.13 65.7863L248.16 50.705L248.836 51.1576L238.709 66.1725H238.703ZM235.764 64.2474L235.179 63.8792L244.786 48.5263L245.474 48.9609L235.764 64.2534V64.2474ZM232.771 62.4128L232.173 62.0567L241.353 46.4382L242.053 46.8547L232.771 62.4128ZM229.735 60.6566L229.126 60.3186L237.87 44.4528L238.576 44.845L229.741 60.6566H229.735ZM226.651 58.997L226.024 58.6711L234.316 42.5698L235.028 42.938L226.651 58.997ZM223.513 57.4158L222.886 57.1141L230.719 40.7835L231.443 41.1335L223.513 57.4218V57.4158ZM220.333 55.9252L219.699 55.6415L227.056 39.0937L227.798 39.4256L220.333 55.9252ZM217.122 54.5251L216.47 54.2535L223.368 37.5065L224.111 37.8143L217.122 54.5251ZM213.875 53.2215L213.2 52.962L219.621 36.028L220.351 36.3056L213.869 53.2215H213.875ZM210.568 51.9964L209.898 51.7611L215.843 34.652L216.597 34.9175L210.574 52.0025L210.568 51.9964ZM207.237 50.8739L206.567 50.6627L212.011 33.3847L212.783 33.6321L207.237 50.8739ZM203.894 49.854L203.212 49.6609L208.166 32.238L208.927 32.4553L203.894 49.854ZM200.514 48.9186L199.838 48.7436L204.286 31.1879L205.064 31.3871L200.508 48.9186H200.514ZM197.128 48.0918L196.428 47.9349L200.393 30.2586L201.16 30.4336L197.134 48.0918H197.128ZM193.695 47.3495L193.001 47.2107L196.459 29.4318L197.237 29.5887L193.689 47.3495H193.695ZM190.231 46.7098L189.555 46.5952L192.512 28.7257L193.32 28.8645L190.231 46.7098ZM186.766 46.1606L186.091 46.0641L188.541 28.1161L189.355 28.2308L186.766 46.1606ZM183.296 45.7201L182.62 45.6416L184.564 27.6334L185.378 27.7239L183.296 45.7141V45.7201ZM179.814 45.3701L179.12 45.3097L180.587 27.2532L181.389 27.3195L179.814 45.364V45.3701ZM176.332 45.1166L175.62 45.0744L176.579 26.9876L177.37 27.0299L176.332 45.1166ZM172.82 44.9657L172.12 44.9476L172.572 26.8428L173.375 26.8669L172.814 44.9718L172.82 44.9657Z" fill="#12F6FC"/>
<path d="M311.98 169.812H293.869V169.462L311.98 169.407V169.812Z" fill="#12F6FC"/>
<path d="M168.963 61.7558L164.009 51.4541H173.912L168.963 61.7558Z" fill="#12F6FC"/>
<path d="M168.963 277.197L173.912 287.499H164.009L168.963 277.197Z" fill="#12F6FC"/>
<path d="M276.687 169.479L286.989 164.524V174.428L276.687 169.479Z" fill="#12F6FC"/>
<path d="M61.2396 169.479L50.938 174.428V164.524L61.2396 169.479Z" fill="#12F6FC"/>
<path d="M169.717 0H168.209V12.9148H169.717V0Z" fill="#12F6FC"/>
<path d="M134.393 3.55253L132.917 3.86621L135.603 16.4988L137.078 16.1851L134.393 3.55253Z" fill="#12F6FC"/>
<path d="M100.583 14.3746L99.2051 14.9883L104.458 26.7865L105.836 26.1729L100.583 14.3746Z" fill="#12F6FC"/>
<path d="M69.7536 31.9862L68.533 32.873L76.1241 43.3213L77.3447 42.4345L69.7536 31.9862Z" fill="#12F6FC"/>
<path d="M43.2744 55.622L42.2649 56.7432L51.8624 65.3848L52.872 64.2636L43.2744 55.622Z" fill="#12F6FC"/>
<path d="M22.2773 84.2549L21.5229 85.5615L32.7075 92.0189L33.4618 90.7123L22.2773 84.2549Z" fill="#12F6FC"/>
<path d="M7.69743 116.622L7.2312 118.057L19.5139 122.048L19.9801 120.613L7.69743 116.622Z" fill="#12F6FC"/>
<path d="M0.157706 151.307L0 152.808L12.8441 154.158L13.0018 152.657L0.157706 151.307Z" fill="#12F6FC"/>
<path d="M12.8484 185.458L0.00439453 186.808L0.1621 188.308L13.0061 186.958L12.8484 185.458Z" fill="#12F6FC"/>
<path d="M19.5024 217.585L7.21973 221.576L7.68595 223.011L19.9686 219.02L19.5024 217.585Z" fill="#12F6FC"/>
<path d="M32.7229 247.592L21.5383 254.05L22.2927 255.356L33.4772 248.899L32.7229 247.592Z" fill="#12F6FC"/>
<path d="M51.8535 274.244L42.2544 282.884L43.2637 284.005L52.8628 275.365L51.8535 274.244Z" fill="#12F6FC"/>
<path d="M76.1387 296.28L68.5476 306.729L69.7682 307.615L77.3593 297.167L76.1387 296.28Z" fill="#12F6FC"/>
<path d="M104.456 312.835L99.2026 324.633L100.581 325.246L105.834 313.448L104.456 312.835Z" fill="#12F6FC"/>
<path d="M135.61 323.142L132.923 335.774L134.399 336.088L137.086 323.456L135.61 323.142Z" fill="#12F6FC"/>
<path d="M169.717 326.714H168.209V339.629H169.717V326.714Z" fill="#12F6FC"/>
<path d="M202.321 323.13L200.846 323.443L203.531 336.076L205.007 335.762L202.321 323.13Z" fill="#12F6FC"/>
<path d="M233.467 312.836L232.088 313.449L237.341 325.247L238.72 324.634L233.467 312.836Z" fill="#12F6FC"/>
<path d="M261.795 296.295L260.574 297.182L268.165 307.63L269.386 306.743L261.795 296.295Z" fill="#12F6FC"/>
<path d="M286.067 274.228L285.058 275.35L294.655 283.991L295.665 282.87L286.067 274.228Z" fill="#12F6FC"/>
<path d="M305.217 247.605L304.463 248.911L315.647 255.369L316.402 254.062L305.217 247.605Z" fill="#12F6FC"/>
<path d="M318.422 217.583L317.956 219.018L330.239 223.008L330.705 221.574L318.422 217.583Z" fill="#12F6FC"/>
<path d="M325.078 185.457L324.92 186.957L337.764 188.307L337.922 186.807L325.078 185.457Z" fill="#12F6FC"/>
<path d="M337.78 151.289L324.936 152.639L325.094 154.139L337.938 152.789L337.78 151.289Z" fill="#12F6FC"/>
<path d="M330.231 116.629L317.948 120.62L318.414 122.055L330.697 118.064L330.231 116.629Z" fill="#12F6FC"/>
<path d="M315.651 84.2701L304.466 90.7256L305.22 92.0323L316.405 85.5769L315.651 84.2701Z" fill="#12F6FC"/>
<path d="M294.657 55.6266L285.058 64.2666L286.068 65.388L295.667 56.748L294.657 55.6266Z" fill="#12F6FC"/>
<path d="M268.153 31.9755L260.562 42.4238L261.782 43.3106L269.373 32.8624L268.153 31.9755Z" fill="#12F6FC"/>
<path d="M237.352 14.3717L232.099 26.1699L233.477 26.7836L238.73 14.9853L237.352 14.3717Z" fill="#12F6FC"/>
<path d="M203.547 3.55931L200.86 16.1914L202.336 16.5053L205.023 3.87325L203.547 3.55931Z" fill="#12F6FC"/>
<path d="M168.963 288.633C103.442 288.633 50.1411 235.333 50.1411 169.811C50.1411 104.29 103.442 50.9893 168.963 50.9893C234.485 50.9893 287.785 104.29 287.785 169.811C287.785 235.333 234.485 288.633 168.963 288.633ZM168.963 53.2524C104.691 53.2524 52.4042 105.539 52.4042 169.811C52.4042 234.084 104.691 286.37 168.963 286.37C233.235 286.37 285.522 234.084 285.522 169.811C285.522 105.539 233.235 53.2524 168.963 53.2524Z" fill="#12F6FC"/>
<path d="M168.963 321.21C160.043 321.21 151.1 320.425 142.385 318.886L142.777 316.66C151.359 318.18 160.17 318.953 168.957 318.953C181.467 318.953 193.899 317.402 205.909 314.342L206.47 316.539C194.28 319.647 181.661 321.222 168.963 321.222V321.21ZM220.99 312.031L220.212 309.906C220.918 309.647 221.618 309.387 222.318 309.116L223.127 311.228C222.415 311.5 221.702 311.765 220.99 312.025V312.031ZM113.182 310.6C110.37 309.484 107.545 308.265 104.793 306.979L105.753 304.928C108.463 306.195 111.245 307.396 114.015 308.494L113.182 310.6ZM274.08 278.772L272.511 277.143C274.659 275.073 276.771 272.906 278.787 270.709L280.453 272.242C278.407 274.469 276.258 276.666 274.08 278.772ZM56.2966 270.945C55.7897 270.378 55.2828 269.81 54.7879 269.237L56.4958 267.746C56.9907 268.314 57.4855 268.869 57.9864 269.43L56.3027 270.945H56.2966ZM45.3855 257.3C32.7664 239.509 24.3054 219.66 20.2378 198.308L22.4647 197.886C26.4719 218.917 34.8062 238.471 47.2321 255.99L45.3855 257.3ZM298.66 247.952L296.723 246.781C307.809 228.416 314.671 208.302 317.115 186.999L319.366 187.258C316.886 208.893 309.921 229.31 298.66 247.958V247.952ZM320.344 172.092L318.081 172.056C318.093 171.308 318.099 170.559 318.099 169.811C318.099 162.702 317.592 155.563 316.596 148.58L318.835 148.26C319.843 155.345 320.356 162.599 320.356 169.811C320.356 170.572 320.356 171.332 320.338 172.092H320.344ZM19.8395 168.097L17.5764 168.073C17.6126 165.044 17.7333 161.978 17.9506 158.96L20.2076 159.123C19.9964 162.092 19.8757 165.11 19.8395 168.097ZM313.741 133.885C313.56 133.155 313.373 132.431 313.186 131.706L315.377 131.127C315.57 131.863 315.757 132.6 315.944 133.336L313.747 133.879L313.741 133.885ZM36.2003 101.809L34.1846 100.777C34.5346 100.101 34.8846 99.4255 35.2467 98.7496L37.2443 99.8118C36.8943 100.476 36.5443 101.139 36.2003 101.809ZM44.9328 86.9694L43.0499 85.7081C54.987 67.8688 70.9314 52.4555 89.1509 41.1279L90.3458 43.0531C72.3979 54.2117 56.6889 69.3956 44.9328 86.9694ZM286.789 78.3817C284.961 76.028 283.036 73.6986 281.068 71.4596L282.77 69.9629C284.768 72.2381 286.723 74.6038 288.582 76.9936L286.795 78.3817H286.789ZM259.192 51.0615C242.089 38.0441 222.831 29.052 201.95 24.3387L202.451 22.1299C223.646 26.9156 243.199 36.0405 260.561 49.257L259.192 51.0615ZM117.207 29.9029L116.423 27.7786C119.259 26.7286 122.168 25.7509 125.071 24.8758L125.729 27.0424C122.874 27.9054 120.008 28.871 117.213 29.9029H117.207ZM187.207 21.7799C186.464 21.6894 185.722 21.6049 184.974 21.5264L185.215 19.2754C185.97 19.3538 186.724 19.4444 187.478 19.5349L187.207 21.7799Z" fill="#12F6FC"/>
</svg>
