<svg width="232" height="117" viewBox="0 0 232 117" fill="none" xmlns="http://www.w3.org/2000/svg">
<g clip-path="url(#clipObj1)">
    <g style="mix-blend-mode:screen" opacity="0.18">
        <path d="M63.7957 59.0659C63.6259 57.8104 63.7314 51.9118 63.9011 50.0839C64.0708 48.2561 62.9908 45.4022 62.5922 44.3194C62.353 43.6671 62.0933 40.8235 61.9004 38.2532C61.7718 36.5517 60.9515 34.8631 61.1778 33.1126C61.4067 31.3621 60.8872 28.851 58.8942 26.9098C57.719 25.7651 54.5868 25.0561 52.2184 24.6694C50.8272 24.4426 49.9065 23.0968 50.1894 21.7124C50.2228 21.55 50.2563 21.3979 50.2897 21.2638C50.7629 20.6812 51.164 19.9619 51.4649 19.1318C51.6038 19.204 51.7709 19.222 51.9561 19.0879C52.4344 18.7373 52.455 16.5228 52.4858 16.3165C52.5064 16.1696 52.2312 16.0536 52.0692 15.9968C52.0795 15.7906 52.0872 15.5818 52.0872 15.3704C52.0872 11.0032 51.0972 9.01805 47.1935 9C47.1935 9 47.1781 9 47.1704 9C47.1626 9 47.1549 9 47.1472 9C43.2435 9.01805 42.2535 11.0032 42.2535 15.3678C42.2535 15.5792 42.2612 15.788 42.2715 15.9943C42.1095 16.0484 41.8343 16.167 41.8549 16.314C41.8832 16.5202 41.9063 18.7347 42.3846 19.0854C42.5698 19.222 42.7395 19.2014 42.8758 19.1292C43.1767 19.9567 43.5753 20.6786 44.051 21.2612C44.0819 21.385 44.1127 21.5216 44.1436 21.6712C44.4316 23.0607 43.4981 24.4091 42.0966 24.6333C39.7076 25.0123 36.4263 25.729 35.215 26.9072C33.2221 28.8485 32.7026 31.3595 32.9315 33.11C33.1603 34.8605 32.3374 36.5491 32.2089 38.2506C32.016 40.8235 31.7563 43.6646 31.5171 44.3168C31.1185 45.4022 30.0359 48.2561 30.2082 50.0814C30.3779 51.9092 30.4859 57.8078 30.3136 59.0633C30.1439 60.3188 29.6013 62.3168 30.5116 63.4305C31.4219 64.5443 32.448 66.2845 33.1603 66.0292C33.8727 65.7714 32.9032 63.3171 33.0472 62.2627C33.0472 62.2627 33.0472 61.7496 33.2555 61.7857C33.4638 61.8244 33.6258 63.3609 34.1607 64.0364C34.3253 64.2426 34.657 64.1111 34.6287 63.8482C34.5799 63.3764 34.513 62.6752 34.4899 62.2601C34.4513 61.595 34.6416 59.5196 33.6155 58.4549C32.5895 57.3901 33.9961 52.4789 34.8679 50.7671C35.7396 49.0553 34.9785 48.3154 36.47 44.0925C37.9641 39.8671 37.4266 37.7015 37.9975 37.5494C38.5658 37.3973 39.8156 51.8344 39.2499 54.0026C38.6867 56.1707 37.352 58.741 36.506 63.593C35.6599 68.4449 36.4983 75.1246 36.4211 77.1406C36.344 79.1567 34.4667 84.1246 35.0916 89.3761C35.7165 94.6276 36.992 99.2166 36.992 99.2166L37.0229 99.3661C37.0794 100.121 37.1412 102.748 35.4259 104.344C33.4046 106.221 33.5538 107.358 34.243 107.655C34.9322 107.951 38.5787 108.247 39.5173 107.655C40.4534 107.062 39.9596 105.185 39.9108 104.195C39.8619 103.207 40.2579 102.269 40.0831 100.836C40.0059 100.196 39.9493 99.709 39.9082 99.3661L39.9185 99.2294C39.9185 99.2294 40.8391 91.7144 41.2943 88.1773C41.7494 84.6376 41.0654 82.5262 41.5231 80.9845C41.9783 79.4454 45.5965 67.375 47.0443 66.8877C48.4947 67.375 52.1129 79.4454 52.5655 80.9845C53.0207 82.5262 52.3367 84.6376 52.7944 88.1773C53.2496 91.717 54.1728 99.1005 54.1728 99.1005L54.1831 99.3661C54.1419 99.709 54.0854 100.196 54.0082 100.836C53.8359 102.269 54.2319 103.207 54.1805 104.195C54.1316 105.182 53.6379 107.062 54.574 107.655C55.51 108.247 59.1565 107.951 59.8483 107.655C60.5375 107.358 60.6866 106.221 58.6653 104.344C56.9501 102.748 57.0118 100.121 57.0684 99.3661L57.1044 99.1753C57.1044 99.1753 58.3748 94.6276 59.0022 89.3761C59.6297 84.1246 57.7499 79.1567 57.6727 77.1406C57.5956 75.1246 58.4339 68.4449 57.5879 63.593C56.7418 58.741 55.4097 56.1707 54.844 54.0026C54.2808 51.8344 55.528 37.3973 56.0963 37.5494C56.6647 37.7015 56.1298 39.8671 57.6239 44.0925C59.1179 48.318 58.3542 49.0553 59.226 50.7671C60.1003 52.4789 61.5044 57.3901 60.4783 58.4549C59.4523 59.5196 59.6426 61.595 59.604 62.2601C59.5808 62.6752 59.5114 63.3764 59.4651 63.8482C59.4394 64.1111 59.7711 64.2426 59.9331 64.0364C60.468 63.3609 60.63 61.8218 60.8383 61.7857C61.0466 61.7471 61.0466 62.2627 61.0466 62.2627C61.1881 63.3197 60.2212 65.774 60.9335 66.0292C61.6458 66.287 62.6693 64.5443 63.5822 63.4305C64.4926 62.3168 63.9525 60.3188 63.7802 59.0633L63.7957 59.0659Z" fill="url(#paintObj11)"/>
    </g>
    <path d="M65.5466 59.0659C65.3769 57.8104 65.4823 51.9118 65.6521 50.0839C65.8218 48.2561 64.7417 45.4022 64.3431 44.3194C64.104 43.6671 63.8442 40.8235 63.6514 38.2532C63.5228 36.5517 62.7025 34.8631 62.9288 33.1126C63.1576 31.3621 62.6382 28.851 60.6452 26.9098C59.47 25.7651 56.3378 25.0561 53.9694 24.6694C52.5781 24.4426 51.6575 23.0968 51.9404 21.7124C51.9738 21.55 52.0072 21.3979 52.0407 21.2638C52.5138 20.6812 52.915 19.9619 53.2159 19.1318C53.3547 19.204 53.5219 19.222 53.7071 19.0879C54.1854 18.7373 54.2059 16.5228 54.2368 16.3165C54.2574 16.1696 53.9822 16.0536 53.8202 15.9968C53.8305 15.7906 53.8382 15.5818 53.8382 15.3704C53.8382 11.0032 52.8481 9.01805 48.9445 9C48.9445 9 48.929 9 48.9213 9C48.9136 9 48.9059 9 48.8982 9C44.9945 9.01805 44.0045 11.0032 44.0045 15.3678C44.0045 15.5792 44.0122 15.788 44.0225 15.9943C43.8604 16.0484 43.5853 16.167 43.6059 16.314C43.6341 16.5202 43.6573 18.7347 44.1356 19.0854C44.3208 19.222 44.4905 19.2014 44.6268 19.1292C44.9277 19.9567 45.3262 20.6786 45.802 21.2612C45.8329 21.385 45.8637 21.5216 45.8946 21.6712C46.1826 23.0607 45.2491 24.4091 43.8476 24.6333C41.4586 25.0123 38.1772 25.729 36.966 26.9072C34.973 28.8485 34.4536 31.3595 34.6824 33.11C34.9113 34.8605 34.0884 36.5491 33.9598 38.2506C33.767 40.8235 33.5072 43.6646 33.2681 44.3168C32.8695 45.4022 31.7868 48.2561 31.9591 50.0814C32.1289 51.9092 32.2369 57.8078 32.0646 59.0633C31.8948 60.3188 31.3522 62.3168 32.2626 63.4305C33.1729 64.5443 34.199 66.2845 34.9113 66.0292C35.6236 65.7714 34.6542 63.3171 34.7982 62.2627C34.7982 62.2627 34.7982 61.7496 35.0065 61.7857C35.2148 61.8244 35.3768 63.3609 35.9117 64.0364C36.0762 64.2426 36.408 64.1111 36.3797 63.8482C36.3308 63.3764 36.264 62.6752 36.2408 62.2601C36.2023 61.595 36.3926 59.5196 35.3665 58.4549C34.3404 57.3901 35.7471 52.4789 36.6189 50.7671C37.4906 49.0553 36.7294 48.3154 38.221 44.0925C39.715 39.8671 39.1776 37.7015 39.7485 37.5494C40.3194 37.3973 41.5666 51.8344 41.0008 54.0026C40.4377 56.1707 39.103 58.741 38.257 63.593C37.4109 68.4449 38.2492 75.1246 38.1721 77.1406C38.0949 79.1567 36.2177 84.1246 36.8426 89.3761C37.4675 94.6276 38.743 99.2166 38.743 99.2166L38.7738 99.3661C38.8304 100.121 38.8921 102.748 37.1769 104.344C35.1556 106.221 35.3048 107.358 35.994 107.655C36.6831 107.951 40.3297 108.247 41.2683 107.655C42.2043 107.062 41.7106 105.185 41.6617 104.195C41.6129 103.207 42.0089 102.269 41.834 100.836C41.7569 100.196 41.7003 99.709 41.6592 99.3661L41.672 99.2294C41.672 99.2294 42.5927 91.7144 43.0478 88.1773C43.503 84.6376 42.819 82.5262 43.2767 80.9845C43.7319 79.4454 47.3501 67.375 48.7979 66.8877C50.2483 67.375 53.8665 79.4454 54.3191 80.9845C54.7743 82.5262 54.0902 84.6376 54.548 88.1773C55.0031 91.717 55.9263 99.1005 55.9263 99.1005L55.9366 99.3661C55.8955 99.709 55.8389 100.196 55.7617 100.836C55.5895 102.269 55.9855 103.207 55.934 104.195C55.8852 105.182 55.3914 107.062 56.3275 107.655C57.2636 108.247 60.9101 107.951 61.6018 107.655C62.291 107.358 62.4402 106.221 60.4189 104.344C58.7036 102.748 58.7654 100.121 58.8219 99.3661L58.8579 99.1753C58.8579 99.1753 60.1283 94.6276 60.7558 89.3761C61.3832 84.1246 59.5034 79.1567 59.4263 77.1406C59.3491 75.1246 60.1875 68.4449 59.3414 63.593C58.4953 58.741 57.1633 56.1707 56.5975 54.0026C56.0343 51.8344 57.2816 37.3973 57.8499 37.5494C58.4182 37.7015 57.8833 39.8671 59.3774 44.0925C60.8715 48.318 60.1077 49.0553 60.9795 50.7671C61.8538 52.4789 63.2579 57.3901 62.2319 58.4549C61.2058 59.5196 61.3961 61.595 61.3575 62.2601C61.3344 62.6752 61.2649 63.3764 61.2187 63.8482C61.1929 64.1111 61.5247 64.2426 61.6867 64.0364C62.2216 63.3609 62.3836 61.8218 62.5919 61.7857C62.8002 61.7471 62.8002 62.2627 62.8002 62.2627C62.9416 63.3197 61.9747 65.774 62.687 66.0292C63.3994 66.287 64.4229 64.5443 65.3358 63.4305C66.2461 62.3168 65.7061 60.3188 65.5338 59.0633L65.5466 59.0659Z" fill="url(#paintObj12)"/>
</g>

<g clip-path="url(#clipObj2)">
    <g style="mix-blend-mode:screen" opacity="0.18">
        <path d="M107.882 59.0659C107.717 57.8104 107.82 51.9118 107.985 50.0839C108.15 48.2561 107.099 45.4022 106.711 44.3194C106.479 43.6671 106.226 40.8235 106.038 38.2532C105.913 36.5517 105.115 34.8631 105.335 33.1126C105.558 31.3621 105.052 28.851 103.113 26.9098C101.97 25.7651 98.9222 25.0561 96.6178 24.6694C95.2642 24.4426 94.3685 23.0968 94.6437 21.7124C94.6762 21.55 94.7087 21.3979 94.7413 21.2638C95.2016 20.6812 95.592 19.9619 95.8847 19.1318C96.0198 19.204 96.1825 19.222 96.3626 19.0879C96.828 18.7373 96.848 16.5228 96.878 16.3165C96.8981 16.1696 96.6303 16.0536 96.4727 15.9968C96.4827 15.7906 96.4902 15.5818 96.4902 15.3704C96.4902 11.0032 95.5269 9.01805 91.7288 9C91.7288 9 91.7137 9 91.7062 9C91.6987 9 91.6912 9 91.6837 9C87.8856 9.01805 86.9222 11.0032 86.9222 15.3678C86.9222 15.5792 86.9298 15.788 86.9398 15.9943C86.7821 16.0484 86.5144 16.167 86.5344 16.314C86.5619 16.5202 86.5845 18.7347 87.0499 19.0854C87.23 19.222 87.3951 19.2014 87.5278 19.1292C87.8205 19.9567 88.2083 20.6786 88.6712 21.2612C88.7012 21.385 88.7313 21.5216 88.7613 21.6712C89.0415 23.0607 88.1333 24.4091 86.7696 24.6333C84.4452 25.0123 81.2525 25.729 80.074 26.9072C78.1349 28.8485 77.6295 31.3595 77.8522 33.11C78.0749 34.8605 77.2742 36.5491 77.1491 38.2506C76.9614 40.8235 76.7087 43.6646 76.476 44.3168C76.0882 45.4022 75.0348 48.2561 75.2025 50.0814C75.3676 51.9092 75.4727 57.8078 75.3051 59.0633C75.1399 60.3188 74.612 62.3168 75.4977 63.4305C76.3835 64.5443 77.3818 66.2845 78.0749 66.0292C78.768 65.7714 77.8247 63.3171 77.9648 62.2627C77.9648 62.2627 77.9648 61.7496 78.1675 61.7857C78.3701 61.8244 78.5278 63.3609 79.0482 64.0364C79.2083 64.2426 79.5311 64.1111 79.5036 63.8482C79.456 63.3764 79.391 62.6752 79.3685 62.2601C79.3309 61.595 79.5161 59.5196 78.5177 58.4549C77.5194 57.3901 78.8881 52.4789 79.7363 50.7671C80.5845 49.0553 79.8438 48.3154 81.2951 44.0925C82.7488 39.8671 82.2258 37.7015 82.7813 37.5494C83.3343 37.3973 84.5503 51.8344 83.9998 54.0026C83.4519 56.1707 82.1533 58.741 81.3301 63.593C80.5069 68.4449 81.3226 75.1246 81.2475 77.1406C81.1725 79.1567 79.3459 84.1246 79.9539 89.3761C80.5619 94.6276 81.803 99.2166 81.803 99.2166L81.833 99.3661C81.8881 100.121 81.9481 102.748 80.2792 104.344C78.3126 106.221 78.4577 107.358 79.1283 107.655C79.7988 107.951 83.3468 108.247 84.26 107.655C85.1708 107.062 84.6904 105.185 84.6428 104.195C84.5953 103.207 84.9806 102.269 84.8105 100.836C84.7354 100.196 84.6804 99.709 84.6403 99.3661L84.6504 99.2294C84.6504 99.2294 85.5461 91.7144 85.989 88.1773C86.4318 84.6376 85.7663 82.5262 86.2117 80.9845C86.6545 79.4454 90.175 67.375 91.5836 66.8877C92.9948 67.375 96.5152 79.4454 96.9556 80.9845C97.3985 82.5262 96.7329 84.6376 97.1783 88.1773C97.6212 91.717 98.5194 99.1005 98.5194 99.1005L98.5294 99.3661C98.4894 99.709 98.4343 100.196 98.3593 100.836C98.1916 102.269 98.577 103.207 98.5269 104.195C98.4794 105.182 97.999 107.062 98.9097 107.655C99.8205 108.247 103.368 107.951 104.042 107.655C104.712 107.358 104.857 106.221 102.891 104.344C101.222 102.748 101.282 100.121 101.337 99.3661L101.372 99.1753C101.372 99.1753 102.608 94.6276 103.218 89.3761C103.829 84.1246 102 79.1567 101.925 77.1406C101.85 75.1246 102.665 68.4449 101.842 63.593C101.019 58.741 99.7229 56.1707 99.1725 54.0026C98.6245 51.8344 99.838 37.3973 100.391 37.5494C100.944 37.7015 100.423 39.8671 101.877 44.0925C103.331 48.318 102.588 49.0553 103.436 50.7671C104.287 52.4789 105.653 57.3901 104.655 58.4549C103.656 59.5196 103.841 61.595 103.804 62.2601C103.781 62.6752 103.714 63.3764 103.669 63.8482C103.644 64.1111 103.966 64.2426 104.124 64.0364C104.645 63.3609 104.802 61.8218 105.005 61.7857C105.207 61.7471 105.207 62.2627 105.207 62.2627C105.345 63.3197 104.404 65.774 105.097 66.0292C105.79 66.287 106.786 64.5443 107.675 63.4305C108.56 62.3168 108.035 60.3188 107.867 59.0633L107.882 59.0659Z" fill="url(#paintObj21)"/>
    </g>
    <path d="M109.585 59.0659C109.42 57.8104 109.523 51.9118 109.688 50.0839C109.853 48.2561 108.802 45.4022 108.414 44.3194C108.182 43.6671 107.929 40.8235 107.741 38.2532C107.616 36.5517 106.818 34.8631 107.038 33.1126C107.261 31.3621 106.755 28.851 104.816 26.9098C103.673 25.7651 100.625 25.0561 98.3209 24.6694C96.9673 24.4426 96.0716 23.0968 96.3468 21.7124C96.3793 21.55 96.4119 21.3979 96.4444 21.2638C96.9048 20.6812 97.2951 19.9619 97.5878 19.1318C97.723 19.204 97.8856 19.222 98.0657 19.0879C98.5311 18.7373 98.5511 16.5228 98.5812 16.3165C98.6012 16.1696 98.3335 16.0536 98.1758 15.9968C98.1858 15.7906 98.1933 15.5818 98.1933 15.3704C98.1933 11.0032 97.23 9.01805 93.4319 9C93.4319 9 93.4169 9 93.4094 9C93.4019 9 93.3943 9 93.3868 9C89.5887 9.01805 88.6254 11.0032 88.6254 15.3678C88.6254 15.5792 88.6329 15.788 88.6429 15.9943C88.4853 16.0484 88.2175 16.167 88.2375 16.314C88.2651 16.5202 88.2876 18.7347 88.753 19.0854C88.9331 19.222 89.0983 19.2014 89.2309 19.1292C89.5236 19.9567 89.9114 20.6786 90.3743 21.2612C90.4044 21.385 90.4344 21.5216 90.4644 21.6712C90.7446 23.0607 89.8364 24.4091 88.4727 24.6333C86.1483 25.0123 82.9556 25.729 81.7772 26.9072C79.838 28.8485 79.3326 31.3595 79.5553 33.11C79.778 34.8605 78.9773 36.5491 78.8522 38.2506C78.6646 40.8235 78.4119 43.6646 78.1792 44.3168C77.7913 45.4022 76.738 48.2561 76.9056 50.0814C77.0707 51.9092 77.1758 57.8078 77.0082 59.0633C76.8431 60.3188 76.3151 62.3168 77.2009 63.4305C78.0866 64.5443 79.0849 66.2845 79.778 66.0292C80.4711 65.7714 79.5278 63.3171 79.6679 62.2627C79.6679 62.2627 79.6679 61.7496 79.8706 61.7857C80.0732 61.8244 80.2309 63.3609 80.7513 64.0364C80.9114 64.2426 81.2342 64.1111 81.2067 63.8482C81.1592 63.3764 81.0941 62.6752 81.0716 62.2601C81.034 61.595 81.2192 59.5196 80.2209 58.4549C79.2225 57.3901 80.5912 52.4789 81.4394 50.7671C82.2876 49.0553 81.547 48.3154 82.9982 44.0925C84.4519 39.8671 83.929 37.7015 84.4844 37.5494C85.0399 37.3973 86.2534 51.8344 85.7029 54.0026C85.155 56.1707 83.8564 58.741 83.0332 63.593C82.21 68.4449 83.0257 75.1246 82.9506 77.1406C82.8756 79.1567 81.0491 84.1246 81.6571 89.3761C82.2651 94.6276 83.5061 99.2166 83.5061 99.2166L83.5361 99.3661C83.5912 100.121 83.6512 102.748 81.9823 104.344C80.0157 106.221 80.1608 107.358 80.8314 107.655C81.5019 107.951 85.0499 108.247 85.9632 107.655C86.8739 107.062 86.3935 105.185 86.346 104.195C86.2984 103.207 86.6838 102.269 86.5136 100.836C86.4385 100.196 86.3835 99.709 86.3435 99.3661L86.356 99.2294C86.356 99.2294 87.2517 91.7144 87.6946 88.1773C88.1375 84.6376 87.4719 82.5262 87.9173 80.9845C88.3602 79.4454 91.8806 67.375 93.2893 66.8877C94.7004 67.375 98.2209 79.4454 98.6612 80.9845C99.1041 82.5262 98.4385 84.6376 98.8839 88.1773C99.3268 91.717 100.225 99.1005 100.225 99.1005L100.235 99.3661C100.195 99.709 100.14 100.196 100.065 100.836C99.8973 102.269 100.283 103.207 100.233 104.195C100.185 105.182 99.7046 107.062 100.615 107.655C101.526 108.247 105.074 107.951 105.747 107.655C106.418 107.358 106.563 106.221 104.596 104.344C102.927 102.748 102.987 100.121 103.042 99.3661L103.077 99.1753C103.077 99.1753 104.313 94.6276 104.924 89.3761C105.534 84.1246 103.705 79.1567 103.63 77.1406C103.555 75.1246 104.371 68.4449 103.548 63.593C102.725 58.741 101.429 56.1707 100.878 54.0026C100.33 51.8344 101.544 37.3973 102.097 37.5494C102.65 37.7015 102.129 39.8671 103.583 44.0925C105.037 48.318 104.293 49.0553 105.142 50.7671C105.992 52.4789 107.358 57.3901 106.36 58.4549C105.362 59.5196 105.547 61.595 105.509 62.2601C105.487 62.6752 105.419 63.3764 105.374 63.8482C105.349 64.1111 105.672 64.2426 105.83 64.0364C106.35 63.3609 106.508 61.8218 106.71 61.7857C106.913 61.7471 106.913 62.2627 106.913 62.2627C107.051 63.3197 106.11 65.774 106.803 66.0292C107.496 66.287 108.492 64.5443 109.38 63.4305C110.266 62.3168 109.74 60.3188 109.573 59.0633L109.585 59.0659Z" fill="url(#paintObj22)"/>
</g>

<g clip-path="url(#clipObj3)">
    <g style="mix-blend-mode:screen" opacity="0.18">
        <path d="M150.969 59.0659C150.808 57.8104 150.908 51.9118 151.068 50.0839C151.229 48.2561 150.207 45.4022 149.83 44.3194C149.604 43.6671 149.358 40.8235 149.176 38.2532C149.054 36.5517 148.278 34.8631 148.492 33.1126C148.709 31.3621 148.218 28.851 146.332 26.9098C145.221 25.7651 142.258 25.0561 140.017 24.6694C138.701 24.4426 137.83 23.0968 138.098 21.7124C138.13 21.55 138.161 21.3979 138.193 21.2638C138.64 20.6812 139.02 19.9619 139.305 19.1318C139.436 19.204 139.594 19.222 139.769 19.0879C140.222 18.7373 140.241 16.5228 140.27 16.3165C140.29 16.1696 140.029 16.0536 139.876 15.9968C139.886 15.7906 139.893 15.5818 139.893 15.3704C139.893 11.0032 138.957 9.01805 135.264 9C135.264 9 135.249 9 135.242 9C135.235 9 135.228 9 135.22 9C131.528 9.01805 130.591 11.0032 130.591 15.3678C130.591 15.5792 130.598 15.788 130.608 15.9943C130.455 16.0484 130.195 16.167 130.214 16.314C130.241 16.5202 130.263 18.7347 130.715 19.0854C130.89 19.222 131.051 19.2014 131.18 19.1292C131.464 19.9567 131.841 20.6786 132.291 21.2612C132.321 21.385 132.35 21.5216 132.379 21.6712C132.651 23.0607 131.768 24.4091 130.443 24.6333C128.183 25.0123 125.079 25.729 123.933 26.9072C122.048 28.8485 121.556 31.3595 121.773 33.11C121.989 34.8605 121.211 36.5491 121.089 38.2506C120.907 40.8235 120.661 43.6646 120.435 44.3168C120.058 45.4022 119.034 48.2561 119.197 50.0814C119.357 51.9092 119.46 57.8078 119.297 59.0633C119.136 60.3188 118.623 62.3168 119.484 63.4305C120.345 64.5443 121.316 66.2845 121.989 66.0292C122.663 65.7714 121.746 63.3171 121.882 62.2627C121.882 62.2627 121.882 61.7496 122.079 61.7857C122.276 61.8244 122.43 63.3609 122.936 64.0364C123.091 64.2426 123.405 64.1111 123.378 63.8482C123.332 63.3764 123.269 62.6752 123.247 62.2601C123.211 61.595 123.391 59.5196 122.42 58.4549C121.449 57.3901 122.78 52.4789 123.605 50.7671C124.429 49.0553 123.709 48.3154 125.12 44.0925C126.533 39.8671 126.025 37.7015 126.565 37.5494C127.103 37.3973 128.285 51.8344 127.75 54.0026C127.217 56.1707 125.955 58.741 125.154 63.593C124.354 68.4449 125.147 75.1246 125.074 77.1406C125.001 79.1567 123.225 84.1246 123.816 89.3761C124.407 94.6276 125.614 99.2166 125.614 99.2166L125.643 99.3661C125.697 100.121 125.755 102.748 124.133 104.344C122.221 106.221 122.362 107.358 123.014 107.655C123.665 107.951 127.115 108.247 128.003 107.655C128.888 107.062 128.421 105.185 128.375 104.195C128.329 103.207 128.703 102.269 128.538 100.836C128.465 100.196 128.411 99.709 128.373 99.3661L128.382 99.2294C128.382 99.2294 129.253 91.7144 129.684 88.1773C130.114 84.6376 129.467 82.5262 129.9 80.9845C130.331 79.4454 133.753 67.375 135.123 66.8877C136.495 67.375 139.918 79.4454 140.346 80.9845C140.776 82.5262 140.129 84.6376 140.562 88.1773C140.993 91.717 141.866 99.1005 141.866 99.1005L141.876 99.3661C141.837 99.709 141.783 100.196 141.71 100.836C141.547 102.269 141.922 103.207 141.873 104.195C141.827 105.182 141.36 107.062 142.246 107.655C143.131 108.247 146.58 107.951 147.235 107.655C147.887 107.358 148.028 106.221 146.116 104.344C144.493 102.748 144.552 100.121 144.605 99.3661L144.639 99.1753C144.639 99.1753 145.841 94.6276 146.434 89.3761C147.028 84.1246 145.25 79.1567 145.177 77.1406C145.104 75.1246 145.897 68.4449 145.097 63.593C144.296 58.741 143.036 56.1707 142.501 54.0026C141.968 51.8344 143.148 37.3973 143.686 37.5494C144.223 37.7015 143.717 39.8671 145.131 44.0925C146.544 48.318 145.821 49.0553 146.646 50.7671C147.473 52.4789 148.801 57.3901 147.831 58.4549C146.86 59.5196 147.04 61.595 147.004 62.2601C146.982 62.6752 146.916 63.3764 146.872 63.8482C146.848 64.1111 147.162 64.2426 147.315 64.0364C147.821 63.3609 147.974 61.8218 148.171 61.7857C148.368 61.7471 148.368 62.2627 148.368 62.2627C148.502 63.3197 147.587 65.774 148.261 66.0292C148.935 66.287 149.903 64.5443 150.767 63.4305C151.628 62.3168 151.117 60.3188 150.954 59.0633L150.969 59.0659Z" fill="url(#paintObj31)"/>
    </g>
    <path d="M152.624 59.0659C152.463 57.8104 152.563 51.9118 152.724 50.0839C152.884 48.2561 151.863 45.4022 151.486 44.3194C151.259 43.6671 151.014 40.8235 150.831 38.2532C150.71 36.5517 149.934 34.8631 150.148 33.1126C150.364 31.3621 149.873 28.851 147.988 26.9098C146.876 25.7651 143.913 25.0561 141.673 24.6694C140.357 24.4426 139.486 23.0968 139.753 21.7124C139.785 21.55 139.816 21.3979 139.848 21.2638C140.296 20.6812 140.675 19.9619 140.96 19.1318C141.091 19.204 141.249 19.222 141.424 19.0879C141.877 18.7373 141.896 16.5228 141.926 16.3165C141.945 16.1696 141.685 16.0536 141.531 15.9968C141.541 15.7906 141.548 15.5818 141.548 15.3704C141.548 11.0032 140.612 9.01805 136.919 9C136.919 9 136.905 9 136.897 9C136.89 9 136.883 9 136.875 9C133.183 9.01805 132.246 11.0032 132.246 15.3678C132.246 15.5792 132.254 15.788 132.263 15.9943C132.11 16.0484 131.85 16.167 131.869 16.314C131.896 16.5202 131.918 18.7347 132.37 19.0854C132.546 19.222 132.706 19.2014 132.835 19.1292C133.12 19.9567 133.497 20.6786 133.947 21.2612C133.976 21.385 134.005 21.5216 134.034 21.6712C134.307 23.0607 133.424 24.4091 132.098 24.6333C129.838 25.0123 126.734 25.729 125.588 26.9072C123.703 28.8485 123.212 31.3595 123.428 33.11C123.645 34.8605 122.866 36.5491 122.745 38.2506C122.562 40.8235 122.316 43.6646 122.09 44.3168C121.713 45.4022 120.689 48.2561 120.852 50.0814C121.013 51.9092 121.115 57.8078 120.952 59.0633C120.791 60.3188 120.278 62.3168 121.139 63.4305C122 64.5443 122.971 66.2845 123.645 66.0292C124.319 65.7714 123.401 63.3171 123.538 62.2627C123.538 62.2627 123.538 61.7496 123.735 61.7857C123.932 61.8244 124.085 63.3609 124.591 64.0364C124.747 64.2426 125.06 64.1111 125.034 63.8482C124.987 63.3764 124.924 62.6752 124.902 62.2601C124.866 61.595 125.046 59.5196 124.075 58.4549C123.105 57.3901 124.435 52.4789 125.26 50.7671C126.085 49.0553 125.365 48.3154 126.775 44.0925C128.189 39.8671 127.68 37.7015 128.22 37.5494C128.76 37.3973 129.94 51.8344 129.405 54.0026C128.872 56.1707 127.61 58.741 126.809 63.593C126.009 68.4449 126.802 75.1246 126.729 77.1406C126.656 79.1567 124.88 84.1246 125.472 89.3761C126.063 94.6276 127.269 99.2166 127.269 99.2166L127.298 99.3661C127.352 100.121 127.41 102.748 125.788 104.344C123.876 106.221 124.017 107.358 124.669 107.655C125.321 107.951 128.77 108.247 129.658 107.655C130.543 107.062 130.076 105.185 130.03 104.195C129.984 103.207 130.359 102.269 130.193 100.836C130.12 100.196 130.067 99.709 130.028 99.3661L130.04 99.2294C130.04 99.2294 130.911 91.7144 131.341 88.1773C131.772 84.6376 131.125 82.5262 131.558 80.9845C131.988 79.4454 135.411 67.375 136.781 66.8877C138.153 67.375 141.575 79.4454 142.003 80.9845C142.434 82.5262 141.787 84.6376 142.22 88.1773C142.65 91.717 143.524 99.1005 143.524 99.1005L143.533 99.3661C143.495 99.709 143.441 100.196 143.368 100.836C143.205 102.269 143.58 103.207 143.531 104.195C143.485 105.182 143.018 107.062 143.903 107.655C144.789 108.247 148.238 107.951 148.892 107.655C149.544 107.358 149.685 106.221 147.773 104.344C146.151 102.748 146.209 100.121 146.263 99.3661L146.297 99.1753C146.297 99.1753 147.499 94.6276 148.092 89.3761C148.686 84.1246 146.907 79.1567 146.834 77.1406C146.762 75.1246 147.555 68.4449 146.754 63.593C145.954 58.741 144.694 56.1707 144.159 54.0026C143.626 51.8344 144.806 37.3973 145.343 37.5494C145.881 37.7015 145.375 39.8671 146.788 44.0925C148.202 48.318 147.479 49.0553 148.304 50.7671C149.131 52.4789 150.459 57.3901 149.488 58.4549C148.518 59.5196 148.698 61.595 148.661 62.2601C148.639 62.6752 148.574 63.3764 148.53 63.8482C148.506 64.1111 148.819 64.2426 148.973 64.0364C149.479 63.3609 149.632 61.8218 149.829 61.7857C150.026 61.7471 150.026 62.2627 150.026 62.2627C150.16 63.3197 149.245 65.774 149.919 66.0292C150.593 66.287 151.561 64.5443 152.425 63.4305C153.286 62.3168 152.775 60.3188 152.612 59.0633L152.624 59.0659Z" fill="url(#paintObj32)"/>
</g>

<g clip-path="url(#clipObj4)">
    <path style="mix-blend-mode:screen" opacity="0.18" d="M198.536 59.0659C198.353 57.8104 198.467 51.9118 198.65 50.0839C198.833 48.2561 197.666 45.4022 197.235 44.3194C196.976 43.6671 196.696 40.8235 196.487 38.2532C196.348 36.5517 195.461 34.8631 195.706 33.1126C195.953 31.3621 195.392 28.851 193.237 26.9098C191.967 25.7651 188.58 25.0561 186.02 24.6694C184.516 24.4426 183.521 23.0968 183.827 21.7124C183.863 21.55 183.899 21.3979 183.935 21.2638C184.446 20.6812 184.88 19.9619 185.205 19.1318C185.356 19.204 185.536 19.222 185.736 19.0879C186.254 18.7373 186.276 16.5228 186.309 16.3165C186.331 16.1696 186.034 16.0536 185.859 15.9968C185.87 15.7906 185.878 15.5818 185.878 15.3704C185.878 11.0032 184.808 9.01805 180.588 9C180.588 9 180.571 9 180.563 9C180.554 9 180.546 9 180.538 9C176.317 9.01805 175.247 11.0032 175.247 15.3678C175.247 15.5792 175.256 15.788 175.267 15.9943C175.091 16.0484 174.794 16.167 174.816 16.314C174.847 16.5202 174.872 18.7347 175.389 19.0854C175.589 19.222 175.773 19.2014 175.92 19.1292C176.245 19.9567 176.676 20.6786 177.19 21.2612C177.224 21.385 177.257 21.5216 177.291 21.6712C177.602 23.0607 176.593 24.4091 175.078 24.6333C172.495 25.0123 168.947 25.729 167.638 26.9072C165.483 28.8485 164.922 31.3595 165.169 33.11C165.417 34.8605 164.527 36.5491 164.388 38.2506C164.18 40.8235 163.899 43.6646 163.64 44.3168C163.209 45.4022 162.039 48.2561 162.225 50.0814C162.409 51.9092 162.525 57.8078 162.339 59.0633C162.156 60.3188 161.569 62.3168 162.553 63.4305C163.537 64.5443 164.647 66.2845 165.417 66.0292C166.187 65.7714 165.139 63.3171 165.294 62.2627C165.294 62.2627 165.294 61.7496 165.52 61.7857C165.745 61.8244 165.92 63.3609 166.498 64.0364C166.676 64.2426 167.035 64.1111 167.004 63.8482C166.951 63.3764 166.879 62.6752 166.854 62.2601C166.812 61.595 167.018 59.5196 165.909 58.4549C164.8 57.3901 166.32 52.4789 167.263 50.7671C168.205 49.0553 167.382 48.3154 168.995 44.0925C170.61 39.8671 170.029 37.7015 170.646 37.5494C171.261 37.3973 172.612 51.8344 172 54.0026C171.391 56.1707 169.948 58.741 169.034 63.593C168.119 68.4449 169.025 75.1246 168.942 77.1406C168.859 79.1567 166.829 84.1246 167.505 89.3761C168.18 94.6276 169.559 99.2166 169.559 99.2166L169.592 99.3661C169.654 100.121 169.72 102.748 167.866 104.344C165.681 106.221 165.842 107.358 166.587 107.655C167.332 107.951 171.274 108.247 172.289 107.655C173.301 107.062 172.767 105.185 172.714 104.195C172.662 103.207 173.09 102.269 172.901 100.836C172.817 100.196 172.756 99.709 172.712 99.3661L172.723 99.2294C172.723 99.2294 173.718 91.7144 174.21 88.1773C174.702 84.6376 173.963 82.5262 174.458 80.9845C174.95 79.4454 178.861 67.375 180.426 66.8877C181.994 67.375 185.906 79.4454 186.395 80.9845C186.887 82.5262 186.148 84.6376 186.643 88.1773C187.135 91.717 188.133 99.1005 188.133 99.1005L188.144 99.3661C188.1 99.709 188.038 100.196 187.955 100.836C187.769 102.269 188.197 103.207 188.141 104.195C188.088 105.182 187.555 107.062 188.567 107.655C189.579 108.247 193.521 107.951 194.269 107.655C195.014 107.358 195.175 106.221 192.99 104.344C191.135 102.748 191.202 100.121 191.263 99.3661L191.302 99.1753C191.302 99.1753 192.676 94.6276 193.354 89.3761C194.032 84.1246 192 79.1567 191.917 77.1406C191.833 75.1246 192.74 68.4449 191.825 63.593C190.91 58.741 189.47 56.1707 188.859 54.0026C188.25 51.8344 189.598 37.3973 190.212 37.5494C190.827 37.7015 190.249 39.8671 191.864 44.0925C193.479 48.318 192.653 49.0553 193.596 50.7671C194.541 52.4789 196.059 57.3901 194.95 58.4549C193.84 59.5196 194.046 61.595 194.004 62.2601C193.979 62.6752 193.904 63.3764 193.854 63.8482C193.827 64.1111 194.185 64.2426 194.36 64.0364C194.939 63.3609 195.114 61.8218 195.339 61.7857C195.564 61.7471 195.564 62.2627 195.564 62.2627C195.717 63.3197 194.672 65.774 195.442 66.0292C196.212 66.287 197.318 64.5443 198.305 63.4305C199.289 62.3168 198.706 60.3188 198.519 59.0633L198.536 59.0659Z" fill="url(#paintObj41)"/>
    <path d="M200.429 59.0659C200.245 57.8104 200.359 51.9118 200.543 50.0839C200.726 48.2561 199.558 45.4022 199.128 44.3194C198.869 43.6671 198.588 40.8235 198.38 38.2532C198.241 36.5517 197.354 34.8631 197.598 33.1126C197.846 31.3621 197.284 28.851 195.13 26.9098C193.859 25.7651 190.473 25.0561 187.913 24.6694C186.409 24.4426 185.413 23.0968 185.719 21.7124C185.755 21.55 185.791 21.3979 185.828 21.2638C186.339 20.6812 186.773 19.9619 187.098 19.1318C187.248 19.204 187.429 19.222 187.629 19.0879C188.146 18.7373 188.168 16.5228 188.202 16.3165C188.224 16.1696 187.927 16.0536 187.751 15.9968C187.762 15.7906 187.771 15.5818 187.771 15.3704C187.771 11.0032 186.7 9.01805 182.48 9C182.48 9 182.464 9 182.455 9C182.447 9 182.439 9 182.43 9C178.21 9.01805 177.14 11.0032 177.14 15.3678C177.14 15.5792 177.148 15.788 177.159 15.9943C176.984 16.0484 176.687 16.167 176.709 16.314C176.739 16.5202 176.764 18.7347 177.282 19.0854C177.482 19.222 177.665 19.2014 177.813 19.1292C178.138 19.9567 178.569 20.6786 179.083 21.2612C179.116 21.385 179.15 21.5216 179.183 21.6712C179.494 23.0607 178.485 24.4091 176.97 24.6333C174.387 25.0123 170.84 25.729 169.531 26.9072C167.376 28.8485 166.814 31.3595 167.062 33.11C167.309 34.8605 166.42 36.5491 166.281 38.2506C166.072 40.8235 165.791 43.6646 165.533 44.3168C165.102 45.4022 163.932 48.2561 164.118 50.0814C164.301 51.9092 164.418 57.8078 164.232 59.0633C164.048 60.3188 163.462 62.3168 164.446 63.4305C165.43 64.5443 166.539 66.2845 167.309 66.0292C168.079 65.7714 167.031 63.3171 167.187 62.2627C167.187 62.2627 167.187 61.7496 167.412 61.7857C167.637 61.8244 167.813 63.3609 168.391 64.0364C168.569 64.2426 168.927 64.1111 168.897 63.8482C168.844 63.3764 168.772 62.6752 168.747 62.2601C168.705 61.595 168.911 59.5196 167.801 58.4549C166.692 57.3901 168.213 52.4789 169.155 50.7671C170.098 49.0553 169.275 48.3154 170.887 44.0925C172.503 39.8671 171.921 37.7015 172.539 37.5494C173.156 37.3973 174.504 51.8344 173.893 54.0026C173.284 56.1707 171.841 58.741 170.926 63.593C170.012 68.4449 170.918 75.1246 170.834 77.1406C170.751 79.1567 168.722 84.1246 169.397 89.3761C170.073 94.6276 171.452 99.2166 171.452 99.2166L171.485 99.3661C171.546 100.121 171.613 102.748 169.759 104.344C167.573 106.221 167.735 107.358 168.48 107.655C169.225 107.951 173.167 108.247 174.182 107.655C175.194 107.062 174.66 105.185 174.607 104.195C174.554 103.207 174.982 102.269 174.793 100.836C174.71 100.196 174.649 99.709 174.604 99.3661L174.618 99.2294C174.618 99.2294 175.613 91.7144 176.106 88.1773C176.598 84.6376 175.858 82.5262 176.353 80.9845C176.845 79.4454 180.757 67.375 182.322 66.8877C183.89 67.375 187.801 79.4454 188.291 80.9845C188.783 82.5262 188.043 84.6376 188.538 88.1773C189.03 91.717 190.028 99.1005 190.028 99.1005L190.039 99.3661C189.995 99.709 189.934 100.196 189.85 100.836C189.664 102.269 190.092 103.207 190.037 104.195C189.984 105.182 189.45 107.062 190.462 107.655C191.474 108.247 195.416 107.951 196.164 107.655C196.909 107.358 197.07 106.221 194.885 104.344C193.031 102.748 193.097 100.121 193.159 99.3661L193.198 99.1753C193.198 99.1753 194.571 94.6276 195.249 89.3761C195.928 84.1246 193.895 79.1567 193.812 77.1406C193.729 75.1246 194.635 68.4449 193.72 63.593C192.806 58.741 191.365 56.1707 190.754 54.0026C190.145 51.8344 191.493 37.3973 192.108 37.5494C192.722 37.7015 192.144 39.8671 193.759 44.0925C195.374 48.318 194.549 49.0553 195.491 50.7671C196.436 52.4789 197.954 57.3901 196.845 58.4549C195.736 59.5196 195.942 61.595 195.9 62.2601C195.875 62.6752 195.8 63.3764 195.75 63.8482C195.722 64.1111 196.081 64.2426 196.256 64.0364C196.834 63.3609 197.009 61.8218 197.234 61.7857C197.459 61.7471 197.459 62.2627 197.459 62.2627C197.612 63.3197 196.567 65.774 197.337 66.0292C198.107 66.287 199.214 64.5443 200.201 63.4305C201.185 62.3168 200.601 60.3188 200.415 59.0633L200.429 59.0659Z" fill="url(#paintObj42)"/>
</g>

<defs>
    <linearGradient id="paintObj11" x1="0" y1="0" x2="1" y2="0" gradientUnits="userSpaceOnUse">
        <stop offset="0" stop-color="#F38DB6">
            <animate dur="1.2s" attributeName="offset" fill="freeze" from="0" to="1" />
        </stop>
        <stop offset="0" stop-color="#F167A6">
            <animate dur="1.2s" attributeName="offset" fill="freeze" from="0" to="1" />
        </stop>
    </linearGradient>
    <linearGradient id="paintObj12" x1="0" x2="100%" y1="0" y2="0" gradientUnits="userSpaceOnUse">
        <stop offset="0" stop-color="#F38DB6">
            <animate dur="1.2s" attributeName="offset" fill="freeze" from="0" to="1" />
        </stop>
        <stop offset="0" stop-color="#fff">
            <animate dur="1.2s" attributeName="offset" fill="freeze" from="0" to="1" />
        </stop>
    </linearGradient>

    <linearGradient id="paintObj21" x1="0" y1="0" x2="100%" y2="0" gradientUnits="userSpaceOnUse">
        <stop offset="0" stop-color="#F38DB6">
            <animate dur="1.6s" attributeName="offset" fill="freeze" from="0" to="1" />
        </stop>
        <stop offset="0" stop-color="#F167A6">
            <animate dur="1.6s" attributeName="offset" fill="freeze" from="0" to="1" />
        </stop>
    </linearGradient>
    <linearGradient id="paintObj22" x1="0" y1="0" x2="100%" y2="0" gradientUnits="userSpaceOnUse">
        <stop offset="0" stop-color="#F38DB6">
            <animate dur="1.6s" attributeName="offset" fill="freeze" from="0" to="1" />
        </stop>
        <stop offset="0" stop-color="#fff">
            <animate dur="1.6s" attributeName="offset" fill="freeze" from="0" to="1" />
        </stop>
    </linearGradient>

    <linearGradient id="paintObj31" x1="0" y1="0" x2="100%" y2="0" gradientUnits="userSpaceOnUse">
        <stop offset="0" stop-color="#F38DB6">
            <animate dur="2s" attributeName="offset" fill="freeze" from="0" to="1" />
        </stop>
        <stop offset="0" stop-color="#F167A6">
            <animate dur="2s" attributeName="offset" fill="freeze" from="0" to="1" />
        </stop>
    </linearGradient>
    <linearGradient id="paintObj32" x1="0" y1="0" x2="100%" y2="0" gradientUnits="userSpaceOnUse">
        <stop offset="0" stop-color="#F38DB6">
            <animate dur="2s" attributeName="offset" fill="freeze" from="0" to="1" />
        </stop>
        <stop offset="0" stop-color="#fff">
            <animate dur="2s" attributeName="offset" fill="freeze" from="0" to="1" />
        </stop>
    </linearGradient>

    <linearGradient id="paintObj41" x1="0" y1="0" x2="100%" y2="0" gradientUnits="userSpaceOnUse">
        <stop offset="0" stop-color="#F38DB6" stop-opacity="0">
            <animate dur="2s" attributeName="offset" fill="freeze" from="0" to="1" />
        </stop>
        <stop offset="0" stop-color="#F38DB6" stop-opacity="0.1">
            <animate dur="2s" attributeName="offset" fill="freeze" from="0" to="1" />
        </stop>
    </linearGradient>

    <linearGradient id="paintObj42" x1="0" y1="0" x2="100%" y2="0" gradientUnits="userSpaceOnUse">
        <stop offset="0" stop-color="#017AD5">
            <animate dur="2s" attributeName="offset" fill="freeze" from="0" to="1" />
        </stop>
        <stop offset="0" stop-color="#fff">
            <animate dur="2s" attributeName="offset" fill="freeze" from="0" to="1" />
        </stop>
    </linearGradient>

    <clipPath id="clipObj1">
        <rect width="37" height="99" fill="white" transform="translate(30 9)"/>
    </clipPath>
    <clipPath id="clipObj2">
        <rect width="36" height="99" fill="white" transform="translate(75 9)"/>
    </clipPath>
    <clipPath id="clipObj3">
        <rect width="35" height="99" fill="white" transform="translate(119 9)"/>
    </clipPath>
    <clipPath id="clipObj4">
        <rect width="40" height="99" fill="white" transform="translate(162 9)"/>
    </clipPath>
</defs>
</svg>
