<svg width="368" height="17" viewBox="0 0 368 17" fill="none" xmlns="http://www.w3.org/2000/svg">
<path d="M368.002 0.741843V-4.76837e-05H213.569C211.347 -4.76837e-05 209.255 0.867966 207.675 2.44819L199.881 10.2418L196.505 13.6174C195.066 15.0566 193.156 15.8467 191.123 15.8467H0V16.5886H191.123C191.972 16.5886 192.8 16.4625 193.59 16.2177C194.083 16.0693 194.562 15.8727 195.018 15.6279C195.749 15.2421 196.427 14.745 197.028 14.1441L208.201 2.97122C209.637 1.53195 211.544 0.741843 213.569 0.741843H368.002Z" fill="#413358"/>
<path d="M200.408 10.2417H153.643L148.027 15.8467L147.656 16.2177H193.594C194.087 16.0693 194.566 15.8727 195.022 15.6278L200.408 10.2417Z" fill="#413358"/>
<path d="M147.654 10.2417H100.889L94.8984 16.2177H141.678L147.654 10.2417Z" fill="#413358"/>
</svg>
